<?xml version="1.0" encoding="UTF-8" standalone="no"?>
<!-- Created with Inkscape (http://www.inkscape.org/) -->

<svg
   width="188.52155mm"
   height="85.940598mm"
   viewBox="0 0 188.52155 85.940598"
   version="1.1"
   id="svg5"
   inkscape:version="1.1.2 (0a00cf5339, 2022-02-04)"
   sodipodi:docname="icon.svg"
   xmlns:inkscape="http://www.inkscape.org/namespaces/inkscape"
   xmlns:sodipodi="http://sodipodi.sourceforge.net/DTD/sodipodi-0.dtd"
   xmlns="http://www.w3.org/2000/svg"
   xmlns:svg="http://www.w3.org/2000/svg">
  <sodipodi:namedview
     id="namedview7"
     pagecolor="#ffffff"
     bordercolor="#666666"
     borderopacity="1.0"
     inkscape:pageshadow="2"
     inkscape:pageopacity="0.0"
     inkscape:pagecheckerboard="0"
     inkscape:document-units="mm"
     showgrid="false"
     fit-margin-top="0"
     fit-margin-left="0"
     fit-margin-right="0"
     fit-margin-bottom="0"
     inkscape:zoom="1.6691572"
     inkscape:cx="272.8922"
     inkscape:cy="267.20071"
     inkscape:window-width="1916"
     inkscape:window-height="1032"
     inkscape:window-x="0"
     inkscape:window-y="0"
     inkscape:window-maximized="1"
     inkscape:current-layer="layer1" />
  <defs
     id="defs2" />
  <g
     inkscape:label="Layer 1"
     inkscape:groupmode="layer"
     id="layer1"
     transform="translate(-9.9235454,-66.177496)">
    <path
       style="stroke:black;stroke-dasharray:none;stroke-miterlimit:4;stroke-width:1;fill:#000000;opacity:1;"
       d="m 94.422067,152.02387 c -1.744096,-0.18435 -3.790749,-0.9339 -5.243126,-1.92019 -1.511717,-1.02659 -2.999931,-2.76435 -3.971689,-4.63769 -0.678669,-1.30832 -0.912105,-1.87551 -1.336415,-3.24713 l -0.328468,-1.06179 -1.45168,0.05 c -0.798425,0.0275 -5.572266,0.0472 -10.608536,0.0437 -8.487225,-0.006 -13.43277,-0.10257 -18.060757,-0.35329 -1.690387,-0.0916 -1.830432,-0.0858 -1.948997,0.0799 -0.07026,0.0982 -0.396988,0.58831 -0.726065,1.08916 -1.090312,1.65942 -2.122798,2.71285 -3.688476,3.7633 -1.453211,0.975 -2.665197,1.42697 -4.563979,1.70197 -1.46239,0.21181 -6.876327,0.20659 -8.334423,-0.008 -3.923066,-0.57744 -7.029051,-2.94057 -8.961769,-6.8184 -0.237064,-0.47565 -0.511502,-1.07911 -0.609865,-1.34103 -0.206503,-0.54988 0.107745,-0.46505 -2.93717,-0.79292 -4.184111,-0.45054 -6.737745,-0.93665 -7.470669,-1.42212 -1.319897,-0.87426 -3.05599,-3.84802 -3.602427,-6.1706 -0.289561,-1.23076 -0.6354062,-4.5604 -0.6507002,-6.26466 -0.01262,-1.40575 -0.0016,-1.49061 0.2625832,-2.0286 0.242847,-0.49448 0.306376,-0.85063 0.532411,-2.98483 0.331456,-3.12957 0.586998,-4.63253 0.913088,-5.3703 0.702716,-1.58988 2.097726,-3.39655 4.560571,-5.90637 l 1.737521,-1.77066 0.650555,-1.36594 c 1.532741,-3.21823 3.655683,-6.380115 5.275753,-7.857657 0.661748,-0.603529 3.269634,-2.631452 4.378143,-3.404495 1.077773,-0.751609 2.160437,-1.252563 2.985611,-1.38146 0.367696,-0.05744 2.530381,-0.150964 4.805969,-0.207841 l 4.13743,-0.103412 1.973139,-0.895933 c 1.085227,-0.492762 2.428454,-1.063092 2.984948,-1.2674 2.135867,-0.784148 2.048093,-0.735771 7.087098,-3.906101 6.545208,-4.117969 12.413218,-7.670964 15.624015,-9.460115 3.842789,-2.141316 11.192158,-5.179159 16.192871,-6.693284 4.45985,-1.350361 15.288722,-2.774041 28.887088,-3.797807 2.38321,-0.179422 18.65225,-0.179081 22.66448,4.75e-4 3.60565,0.161361 8.6425,0.478889 10.87693,0.685691 3.50987,0.324847 8.51535,1.112569 13.76057,2.165525 4.62274,0.927993 7.083,1.589241 13.0029,3.494798 4.12755,1.328617 4.65753,1.588801 4.58049,2.248702 -0.0379,0.324855 -0.0333,0.328726 0.47248,0.392741 0.43709,0.05532 0.57875,0.134241 0.9817,0.546869 0.88877,0.910122 5.86486,7.692174 7.85009,10.699103 3.26593,4.946752 4.43702,6.965791 4.2324,7.296892 -0.029,0.04687 0.58099,0.798232 1.35547,1.669688 2.90192,3.265265 3.48177,4.039353 4.30704,5.749771 0.48024,0.99532 0.82073,2.29998 1.10192,4.2222 0.0944,0.64552 0.20039,2.63459 0.27218,5.10962 0.10928,3.76744 0.10261,4.29139 -0.0949,7.44504 l -0.21246,3.3924 -0.65819,1.74589 c -0.89559,2.3756 -1.12828,3.15184 -1.2644,4.21809 -0.27499,2.15385 -0.79531,3.08601 -1.7226,3.08601 -0.16972,0 -0.30857,0.0231 -0.30857,0.0513 0,0.0282 -0.0688,0.50953 -0.15296,1.06966 -0.63587,4.23356 -2.03312,7.48608 -4.02188,9.36218 -0.88037,0.83049 -1.76952,1.26595 -3.21135,1.57274 -0.96256,0.20481 -1.3524,0.22659 -4.14841,0.23183 -2.9565,0.005 -3.11786,-0.004 -3.84486,-0.23012 -1.50777,-0.46873 -2.73924,-1.33766 -3.8096,-2.68808 -1.13711,-1.43463 -2.23966,-3.89371 -2.71666,-6.05916 -0.14079,-0.63915 -0.20478,-0.77825 -0.33965,-0.73837 -0.44649,0.13204 -3.38454,0.50239 -6.89467,0.86911 -4.09198,0.4275 -21.25211,2.2988 -37.97868,4.14154 -7.41256,0.81663 -9.92341,1.12611 -9.99005,1.23134 -0.049,0.0773 -0.0897,0.30166 -0.0906,0.49855 -0.003,0.59209 -0.39015,1.22726 -0.90832,1.48856 -0.39939,0.2014 -0.60377,0.22766 -1.77201,0.22766 h -1.32056 l -0.29398,0.86587 c -0.85741,2.52529 -2.69056,5.42348 -4.30358,6.8039 -2.00748,1.71799 -3.96817,2.57728 -6.50033,2.84884 -1.1337,0.12158 -6.228867,0.11831 -7.392993,-0.005 z m 6.453083,-0.19988 c 0.77909,-0.0581 1.71248,-0.16249 2.0742,-0.232 l 0.65768,-0.12638 -1.11299,-0.0614 c -2.44423,-0.13484 -4.540474,-1.26084 -6.364415,-3.41864 -2.239271,-2.64915 -3.690043,-6.16899 -4.378885,-10.62397 -0.259186,-1.67625 -0.257899,-6.0066 0.0023,-7.84151 0.656577,-4.62959 2.458362,-8.7025 4.97269,-11.24069 1.885093,-1.90298 3.76532,-2.77918 5.98983,-2.79129 0.51811,-0.003 0.94202,-0.0188 0.94202,-0.0355 0,-0.0167 -0.41855,-0.12863 -0.93011,-0.24874 -2.774536,-0.65138 -5.768639,-0.67155 -7.839604,-0.0528 -0.508006,0.15178 -0.547225,0.19154 -1.32545,1.34365 -1.390089,2.05793 -2.44082,3.99064 -3.344798,6.1524 -1.046922,2.5036 -1.442763,3.96219 -2.043708,7.53066 -0.906422,5.38241 -1.977733,9.88197 -2.503111,10.51318 -0.130393,0.15666 -0.381981,0.23993 -0.984593,0.32586 -0.445195,0.0635 -0.822373,0.12609 -0.838175,0.13912 -0.0941,0.0776 0.885137,2.72263 1.385942,3.74363 1.553191,3.16653 3.932037,5.37694 6.787835,6.30723 1.384908,0.45114 2.047435,0.55157 4.097819,0.62121 3.172027,0.10774 3.257907,0.10766 4.755483,-0.004 z m 3.5736,-0.86104 c 1.67104,-0.37806 3.42594,-1.53711 4.81443,-3.17975 2.31765,-2.74188 3.838,-6.62065 4.42199,-11.28164 0.1828,-1.45902 0.1564,-4.87809 -0.05,-6.47557 -0.86471,-6.69203 -4.08006,-12.13778 -8.12194,-13.7559 -2.98573,-1.19531 -6.001186,-0.41698 -8.594543,2.21836 -2.541235,2.58237 -4.307371,6.6726 -4.959995,11.48695 -0.208519,1.53822 -0.234835,5.04597 -0.04896,6.52616 0.87786,6.99075 3.978822,12.37514 8.114438,14.08959 0.65339,0.27086 1.07442,0.37933 2.21694,0.57112 0.37987,0.0638 1.48635,-0.0361 2.20766,-0.19932 z m -2.5162,-3.98955 c -1.20912,-0.19052 -2.634046,-0.957 -3.700215,-1.99039 -1.250341,-1.21189 -2.430999,-3.20717 -3.072887,-5.19308 -1.017711,-3.14866 -1.194656,-6.81327 -0.488462,-10.11631 0.718601,-3.36107 2.528082,-6.42205 4.630008,-7.8323 1.365036,-0.91584 2.436626,-1.22606 3.951896,-1.14405 2.01388,0.10899 3.75727,1.14603 5.26456,3.13155 1.29503,1.70592 2.13392,3.66575 2.69595,6.29835 0.26098,1.22248 0.28073,1.47965 0.27968,3.64251 -0.001,2.51143 -0.1401,3.61538 -0.69636,5.5349 -0.8171,2.81966 -2.55964,5.40678 -4.4952,6.67395 -1.26157,0.82592 -2.97089,1.21515 -4.36897,0.99487 z m 2.14166,-0.36337 0.7095,-0.16137 0.78937,-1.63459 c 1.18378,-2.45131 1.14036,-2.19263 0.55324,-3.29566 -0.27262,-0.51219 -0.72336,-1.23585 -1.00164,-1.60812 -0.40427,-0.54081 -0.58206,-0.69566 -0.88455,-0.77039 -0.20822,-0.0515 -0.404,-0.0681 -0.43508,-0.037 -0.0311,0.0311 0.22355,0.59678 0.56584,1.25711 0.66472,1.28236 0.83796,1.97404 0.60394,2.4113 -0.30225,0.56476 -1.5874,0.97233 -3.72576,1.18158 l -1.22213,0.11959 0.14214,0.27486 c 0.34338,0.66403 1.66438,2.30904 1.88862,2.35185 0.5222,0.0997 1.34639,0.0633 2.01651,-0.0891 z m -3.3599,-0.97204 c -0.744496,-1.0041 -1.103916,-1.68921 -1.103916,-2.1042 0,-0.72951 1.076216,-3.10751 1.776796,-3.92598 0.45628,-0.53305 1.06828,-0.72851 2.28103,-0.72851 0.80308,0 0.91304,0.024 1.19463,0.26096 0.3311,0.27861 1.19322,1.6119 1.73057,2.67638 0.38953,0.77166 0.42146,0.63216 -0.66474,2.90419 l -0.73688,1.54134 0.3206,-0.16282 c 1.61227,-0.81879 3.16517,-2.57869 4.15729,-4.71145 0.67897,-1.4596 0.68271,-1.53799 0.0443,-0.92972 -1.09429,1.04266 -1.3543,1.08729 -2.04331,0.35068 -0.51269,-0.54811 -1.33534,-1.7618 -1.68816,-2.49064 l -0.2258,-0.46644 0.17241,-1.13043 c 0.24872,-1.63074 0.64401,-3.57112 0.80694,-3.96106 0.21931,-0.52488 2.22768,-1.87426 2.78959,-1.87426 0.26573,0 0.77229,0.45465 1.29508,1.16238 l 0.44932,0.60828 -0.0666,-0.5565 c -0.27182,-2.26987 -0.75955,-4.17021 -1.4379,-5.60251 l -0.24577,-0.51892 0.0671,1.22277 c 0.0798,1.45344 -0.003,1.78663 -0.5819,2.34872 -0.4644,0.45075 -1.81658,1.29129 -2.24169,1.39348 -0.26181,0.0629 -0.39644,-0.0448 -1.73193,-1.38597 -1.02099,-1.02533 -1.46606,-1.54372 -1.50911,-1.75775 -0.12794,-0.63602 -0.18201,-3.07136 -0.0862,-3.88021 0.0895,-0.75472 0.13626,-0.88244 0.43907,-1.19791 0.37566,-0.39137 1.06488,-0.77605 1.59655,-0.8911 l 0.34698,-0.0751 -0.2458,-0.1379 c -0.13519,-0.0759 -0.60102,-0.25256 -1.03518,-0.3927 -1.41552,-0.4569 -2.82733,-0.32501 -4.26966,0.39888 -0.717706,0.36021 -1.427466,0.85786 -1.011796,0.70943 0.886476,-0.31655 1.880186,-0.0365 2.585496,0.72867 0.59352,0.6439 0.70314,0.97675 0.70122,2.12927 -0.003,1.89398 -0.16081,3.1938 -0.45958,3.78894 -0.42726,0.8511 -1.12083,1.8489 -1.56253,2.24796 -0.34906,0.31535 -0.4736,0.36603 -0.899446,0.36603 -0.62833,0 -2.173855,-0.44194 -2.659056,-0.76036 -0.435423,-0.28575 -0.515565,-0.57902 -0.690821,-2.52801 -0.06005,-0.66779 -0.133781,-1.37038 -0.163849,-1.56131 l -0.05467,-0.34715 -0.190085,0.42457 c -0.329517,0.736 -0.78036,2.25215 -1.012911,3.40632 -0.173021,0.85873 -0.232586,1.56373 -0.260734,3.08601 l -0.03648,1.97303 0.185726,-0.62651 c 0.369247,-1.24559 1.240718,-2.35832 1.846984,-2.35832 0.342073,0 1.657987,0.51543 2.235716,0.87571 0.32562,0.20306 0.40777,0.33904 0.63015,1.04301 0.30716,0.97232 0.711186,2.56263 0.858996,3.38114 0.12403,0.68681 0.0558,0.98829 -0.661306,2.92313 -0.57816,1.5599 -0.80554,1.99626 -1.040195,1.99626 -0.467146,0 -1.501688,-0.60406 -2.312162,-1.35004 -0.23651,-0.21769 -0.430018,-0.36335 -0.430018,-0.32368 0,0.20108 1.074903,2.11388 1.518738,2.70261 0.794122,1.05337 1.918307,2.04295 2.851333,2.50995 0.44746,0.22397 0.87641,0.40721 0.9532,0.40721 0.0801,0 -0.12287,-0.35405 -0.47567,-0.82987 z m 0.72642,-7.84702 c -0.33625,-0.33625 -0.46429,-0.97915 -0.3095,-1.554 0.27119,-1.00712 1.10662,-1.08998 1.4673,-0.14554 0.23633,0.61882 0.13251,1.30168 -0.25715,1.69133 -0.35934,0.35934 -0.5478,0.36106 -0.90065,0.008 z m 0.74884,-0.22599 c 0.45701,-0.50499 0.23264,-1.82228 -0.31038,-1.82228 -0.52098,0 -0.73477,1.33617 -0.29206,1.82536 0.22711,0.25096 0.37321,0.25021 0.60244,-0.003 z m 2.15209,0.36481 c -0.0968,-0.0735 -0.24477,-0.29824 -0.32884,-0.49943 -0.52486,-1.25619 0.43445,-2.59457 1.2041,-1.6799 0.21783,0.25887 0.26195,0.4131 0.26195,0.91565 0,1.06242 -0.56922,1.69495 -1.13721,1.26368 z m 0.7633,-0.5682 c 0.34049,-0.6604 0.0377,-1.67273 -0.47801,-1.59805 -0.43475,0.063 -0.62051,1.10198 -0.30582,1.71053 0.21159,0.40917 0.53911,0.36217 0.78383,-0.11248 z m -2.34641,-1.88525 c -0.58283,-0.40823 -0.80711,-1.78783 -0.42677,-2.62524 0.48439,-1.06653 1.52307,-1.12941 2.02154,-0.12238 l 0.21476,0.43387 8e-5,-0.33884 c 10e-5,-0.45461 0.28127,-1.02125 0.5726,-1.15399 0.32469,-0.14794 0.6876,0.0301 0.90052,0.44187 0.25104,0.48547 0.16519,1.51672 -0.15462,1.85714 -0.37698,0.40128 -0.87234,0.30443 -1.1607,-0.22693 -0.14813,-0.27297 -0.14966,-0.27039 -0.15367,0.25952 -0.005,0.5986 -0.27441,1.23103 -0.63229,1.4817 -0.29402,0.20594 -0.88261,0.20259 -1.18145,-0.007 z m 1.09967,-0.3234 c 0.63281,-0.63281 0.65294,-1.93982 0.04,-2.60114 -0.49735,-0.53664 -1.20868,-0.15153 -1.46272,0.79191 -0.23297,0.86516 0.30632,2.09545 0.91852,2.09545 0.11986,0 0.34673,-0.1288 0.50415,-0.28622 z m 1.89656,-1.50529 c 0.37144,-0.56688 0.11669,-1.74982 -0.37683,-1.74982 -0.31182,0 -0.53641,0.54453 -0.48421,1.174 0.0702,0.84634 0.49684,1.13167 0.86104,0.57582 z m -4.98055,0.75441 c -0.51783,-0.44659 -0.54071,-1.62866 -0.0418,-2.15972 0.40595,-0.43212 0.88519,-0.2799 1.14237,0.36285 0.20452,0.51117 0.20775,0.91434 0.0111,1.38502 -0.27329,0.65407 -0.66326,0.79855 -1.11165,0.41185 z m 0.80658,-0.37441 c 0.30957,-0.59864 0.0886,-1.72509 -0.33845,-1.72509 -0.35527,0 -0.56957,0.3807 -0.56957,1.0118 0,0.43411 0.0499,0.641 0.19274,0.79883 0.26904,0.29728 0.53369,0.26563 0.71528,-0.0855 z m 1.13948,-2.45865 c -0.58624,-0.44518 -0.45039,-2.20366 0.18252,-2.36251 0.37989,-0.0953 0.58246,-0.008 0.82713,0.35456 0.36445,0.5408 0.30247,1.54282 -0.12167,1.96695 -0.19812,0.19812 -0.65338,0.21914 -0.88798,0.041 z m 0.67176,-0.26431 c 0.41251,-0.45582 0.40045,-1.38783 -0.0229,-1.77098 -0.26179,-0.23691 -0.47673,-0.11985 -0.67088,0.36539 -0.19778,0.4943 -0.13109,1.06671 0.16079,1.38001 0.24437,0.2623 0.31568,0.26572 0.53301,0.0256 z m -0.74624,12.18838 c 1.03358,-0.19521 1.89769,-0.53361 2.03958,-0.79873 0.21805,-0.40743 0.10197,-0.9079 -0.47419,-2.04438 -0.31033,-0.61214 -0.6452,-1.22004 -0.74414,-1.35088 l -0.17989,-0.2379 -0.64952,0.16186 c -0.80537,0.2007 -1.18995,0.58838 -1.84846,1.86336 -0.51193,0.9912 -1.003726,2.35956 -0.923326,2.56906 0.0623,0.16233 1.507706,0.0779 2.779946,-0.16239 z m -3.661186,-2.00836 c 0.16706,-0.40346 0.49712,-1.30271 0.73347,-1.99832 l 0.429726,-1.26476 -0.182036,-0.91063 c -0.17719,-0.88635 -0.73833,-2.96011 -0.9504,-3.51235 -0.11436,-0.29778 -0.693744,-0.63455 -1.822816,-1.05953 -0.649063,-0.24431 -0.656422,-0.24473 -0.914211,-0.0523 -0.142934,0.10672 -0.259881,0.22963 -0.259881,0.27314 0,0.0435 0.38148,0.24351 0.847733,0.44445 0.466254,0.20094 0.907554,0.45638 0.98067,0.56765 0.373128,0.56783 1.020685,3.64056 0.911335,4.32439 -0.107341,0.67125 -0.895458,2.63078 -1.195571,2.97259 l -0.290115,0.33042 0.23301,0.14657 c 1.018105,0.64042 1.112603,0.62372 1.479086,-0.26136 z m -1.617322,-0.41181 c 0.121286,-0.1291 0.430372,-0.80069 0.686855,-1.49241 0.434817,-1.17268 0.462592,-1.30555 0.410974,-1.96595 -0.05836,-0.74668 -0.564777,-2.88211 -0.793925,-3.34779 -0.10026,-0.20375 -0.363255,-0.37283 -1.021593,-0.65678 l -0.886574,-0.3824 -0.254377,0.37224 c -0.340613,0.49842 -0.616144,1.41978 -0.703564,2.35268 -0.06091,0.64999 -0.03254,0.91252 0.188224,1.74197 0.410143,1.54096 0.851364,2.555 1.355867,3.11613 0.498971,0.55497 0.695585,0.60563 1.018113,0.26231 z m 11.511238,-0.25655 c 0.45951,-0.33646 1.47213,-1.38458 1.63893,-1.6964 0.26877,-0.50244 0.63591,-2.74102 0.69655,-4.24721 l 0.0615,-1.52763 -0.2807,-0.51574 c -0.3976,-0.73054 -1.23173,-1.64019 -1.50212,-1.63814 -0.12076,9.1e-4 -0.40128,0.10458 -0.62337,0.23036 l -0.4038,0.2287 -0.12515,1.0091 c -0.14922,1.20316 -0.51509,3.07089 -1.01491,5.18097 -0.32472,1.37083 -0.34975,1.56977 -0.22654,1.8 0.16548,0.3092 1.19699,1.46492 1.30748,1.46492 0.0426,0 0.25508,-0.13002 0.47212,-0.28893 z m -1.64103,-3.81301 c 0.54397,-2.37492 0.89761,-4.372 0.85305,-4.81739 l -0.0316,-0.31568 -0.52595,0.41671 c -0.60783,0.48157 -0.61188,0.49232 -1.03632,2.74746 -0.48411,2.57214 -0.48782,2.68617 -0.11153,3.43159 0.17661,0.34986 0.33613,0.62012 0.35449,0.60058 0.0184,-0.0195 0.24239,-0.94802 0.49784,-2.06327 z m -6.91901,-5.97744 c 0.47016,-0.42477 1.20815,-1.49983 1.56571,-2.28084 0.21613,-0.4721 0.26295,-0.7842 0.35819,-2.38799 0.1057,-1.78 0.10208,-1.86185 -0.10283,-2.32578 -0.39795,-0.90098 -1.23748,-1.54326 -2.0172,-1.54326 -0.399656,0 -1.221296,0.26311 -1.219156,0.39041 6.1e-4,0.0357 0.34245,0.24413 0.75967,0.46318 0.417216,0.21906 0.924476,0.55025 1.127246,0.73597 l 0.36867,0.33769 -0.0628,1.13587 c -0.0828,1.49926 -0.23326,2.27281 -0.52585,2.70418 -0.13212,0.19477 -0.742696,0.90051 -1.356846,1.5683 -0.614146,0.66779 -1.079235,1.22694 -1.033525,1.24254 0.188858,0.0645 1.393215,0.31027 1.556755,0.31772 0.0972,0.004 0.359096,-0.15668 0.581926,-0.35799 z m -1.263816,-1.46337 c 0.66736,-0.72793 1.288726,-1.45902 1.380806,-1.62465 0.22436,-0.40353 0.40781,-1.77365 0.36955,-2.76001 l -0.0311,-0.80088 -0.576,-0.393 -0.575986,-0.393 -0.43582,0.22128 c -0.23969,0.12171 -0.549637,0.30819 -0.68876,0.41441 -0.512316,0.39116 -1.424693,1.3444 -1.77861,1.85827 l -0.364161,0.52875 0.164707,1.55437 c 0.231327,2.18308 0.241433,2.21813 0.717247,2.48763 0.220429,0.12485 0.446665,0.22775 0.502747,0.22866 0.05608,9.1e-4 0.647988,-0.59391 1.31535,-1.32183 z m 8.382416,0.7431 c 0.39768,-0.20792 0.98486,-0.63132 1.30485,-0.94089 l 0.58179,-0.56285 -0.003,-1.10802 c -0.005,-1.83117 -0.11159,-2.37141 -0.60983,-3.10469 -0.58819,-0.86566 -1.11037,-1.45565 -1.7925,-2.02527 -0.50192,-0.41913 -0.63401,-0.48032 -1.03268,-0.47838 -0.56857,0.003 -1.16858,0.26878 -1.71047,0.75834 -0.68187,0.61603 -0.65681,0.67043 1.2549,2.72425 1.85826,1.99639 2.31874,2.59235 2.22683,2.88193 -0.0333,0.10496 -0.47072,0.47971 -0.97202,0.8328 l -0.91146,0.64196 0.40541,0.37943 c 0.22298,0.20868 0.43467,0.37942 0.47042,0.37942 0.0358,0 0.39039,-0.17011 0.78807,-0.37803 z m -0.98235,-1.20172 c 0.43713,-0.31237 0.81475,-0.58655 0.83916,-0.6093 0.0244,-0.0228 -0.0513,-0.23838 -0.16833,-0.47918 -0.17341,-0.35693 -0.94239,-1.23003 -3.4424,-3.90851 -0.026,-0.0278 -0.029,0.74621 -0.007,1.72007 0.0274,1.1996 0.0835,1.85224 0.17385,2.02361 0.14131,0.26792 1.62713,1.82126 1.74209,1.82126 0.0372,0 0.42528,-0.25558 0.86241,-0.56795 z m -8.532435,-4.77577 c 0.288474,-0.24006 0.696849,-0.52637 0.907499,-0.63626 0.42614,-0.22231 0.42147,-0.30905 -0.0266,-0.49466 -0.286532,-0.11869 -0.3341,-0.10328 -0.760865,0.24642 -0.250374,0.20516 -0.728484,0.78781 -1.062467,1.29478 -0.759391,1.1527 -0.818417,1.56761 -0.09464,0.66525 0.281933,-0.35149 0.748629,-0.83548 1.037103,-1.07553 z m -56.396933,23.04283 c 0.655118,-0.0598 1.436986,-0.16858 1.737485,-0.24177 l 0.546361,-0.13306 -0.919736,-0.0112 c -3.428282,-0.0417 -6.618652,-2.48077 -8.738897,-6.68095 -0.263401,-0.52179 -0.351469,-0.61262 -0.635556,-0.65549 -0.181383,-0.0274 -2.105507,-0.19022 -4.275833,-0.36188 -2.170327,-0.17165 -4.075792,-0.33814 -4.234368,-0.36997 -0.264604,-0.0531 -0.28247,-0.0383 -0.217212,0.18005 0.18247,0.61051 1.032454,2.24866 1.641279,3.16319 2.090003,3.13943 5.203456,4.90163 9.032914,5.11258 2.141355,0.11796 4.7615,0.11731 6.063563,-0.001 z m 3.194473,-0.85098 c 1.390802,-0.36588 2.861113,-1.25501 4.063198,-2.45709 0.986299,-0.9863 2.488507,-3.06698 2.329266,-3.22622 -0.0314,-0.0314 -0.808765,-0.1031 -1.72747,-0.15933 l -1.670371,-0.10223 -0.536095,0.47254 c -0.294853,0.2599 -0.900345,0.65324 -1.34554,0.87409 -2.545717,1.26284 -5.180553,0.76309 -7.482787,-1.41924 l -0.611671,-0.57981 -1.760733,-0.11848 c -0.968404,-0.0652 -1.776104,-0.1031 -1.79489,-0.0843 -0.01879,0.0188 0.252689,0.53687 0.60328,1.15128 1.935546,3.3921 4.413242,5.37156 7.303114,5.83457 0.52642,0.0843 1.999329,-0.0197 2.630699,-0.18577 z m 141.080395,-4.11782 c 0.59375,-0.0691 0.89467,-0.14199 0.80944,-0.196 -0.0746,-0.0473 -0.22672,-0.0867 -0.33802,-0.0876 -0.3182,-0.003 -1.36591,-0.53879 -1.93346,-0.98957 -1.94977,-1.54862 -3.58041,-5.33787 -4.25551,-9.88883 -0.25722,-1.73396 -0.25701,-6.56535 0,-8.29682 0.95766,-6.44269 3.47989,-10.63034 6.60464,-10.96575 l 0.69695,-0.0748 -0.51718,-0.16152 c -0.83405,-0.26047 -1.94641,-0.3995 -2.9191,-0.36483 l -0.90675,0.0323 -0.36893,0.48863 c -1.43408,1.89935 -3.64871,7.43621 -4.49343,11.23411 -0.84624,3.80477 -2.55043,8.44179 -3.29821,8.97425 -0.34674,0.24691 -1.51991,0.66957 -2.12869,0.76692 -0.47443,0.0759 -0.47675,0.0975 -0.14693,1.36655 0.71072,2.73478 2.04981,5.20783 3.52765,6.51489 0.68791,0.60842 1.67956,1.19176 2.49944,1.47031 1.09772,0.37295 4.71955,0.46278 7.16772,0.17777 z M 44.570406,142.12671 c 0.30852,-0.0932 0.40725,-0.21029 0.734184,-0.87101 0.263603,-0.53273 0.339329,-0.77518 0.25063,-0.80244 -0.0699,-0.0215 -1.106024,-0.0908 -2.302486,-0.15391 -1.196462,-0.0632 -2.305991,-0.14014 -2.465621,-0.17104 -0.199269,-0.0386 -0.27761,-0.0183 -0.249951,0.0647 0.08364,0.25093 1.455377,2.02186 1.601554,2.06764 0.255108,0.0799 2.051231,-0.019 2.43169,-0.13391 z m -3.264465,-0.33846 c -0.137907,-0.18086 -0.460936,-0.62957 -0.717843,-0.99714 l -0.467104,-0.6683 -0.624358,-0.0653 c -0.343396,-0.0359 -0.765655,-0.0634 -0.938352,-0.0612 l -0.313995,0.004 0.505904,0.46629 c 0.668336,0.61601 1.410088,1.10222 2.138324,1.40163 0.326455,0.13422 0.610342,0.24511 0.630859,0.24644 0.02052,0.001 -0.07553,-0.14558 -0.213435,-0.32644 z m 147.303829,-0.22471 c 0.79532,-0.38395 2.06123,-1.67227 2.70095,-2.7488 1.3528,-2.27647 2.27708,-5.51827 2.60605,-9.14043 0.16611,-1.82897 0.0702,-5.19133 -0.19857,-6.96289 -0.62568,-4.12377 -1.97886,-7.35997 -3.82117,-9.13851 -1.84654,-1.78264 -3.74255,-1.81473 -5.62399,-0.0952 -1.90896,1.74468 -3.39576,5.47208 -3.9842,9.98836 -0.23403,1.79619 -0.23232,5.48957 0.003,7.26818 0.36656,2.76621 1.02811,5.12496 1.98643,7.08264 0.98536,2.01292 2.14109,3.28111 3.52061,3.86319 0.81156,0.34244 1.95828,0.29488 2.81053,-0.11655 z m -2.86934,-3.39586 c -0.40213,-0.20094 -0.83561,-0.5431 -1.25562,-0.9911 -1.43089,-1.52619 -2.30003,-3.7688 -2.77127,-7.15059 -0.20757,-1.48957 -0.1554,-4.65521 0.10007,-6.07084 0.67176,-3.72272 2.08295,-6.33864 3.94759,-7.31769 0.43587,-0.22886 0.63616,-0.26803 1.3705,-0.26803 0.74197,0 0.93283,0.0382 1.39024,0.27803 2.76605,1.45046 4.572,6.9894 4.08162,12.51849 -0.34672,3.90924 -1.50315,6.8947 -3.26988,8.44154 -1.05471,0.92345 -2.43552,1.13872 -3.59325,0.56019 z m 2.27909,-0.12262 c 0.20477,-0.10009 0.35305,-0.37338 0.70023,-1.29055 0.79253,-2.09374 0.77635,-1.95121 0.34133,-3.00576 -0.48989,-1.18756 -0.8613,-1.8126 -1.1168,-1.87942 -0.11302,-0.0296 -0.20549,-0.0213 -0.20549,0.0183 0,0.0396 0.16228,0.47451 0.36064,0.96641 0.63079,1.56435 0.58364,2.20661 -0.19101,2.60181 -0.45047,0.22981 -1.55834,0.48486 -2.11736,0.48745 -0.29437,0.001 -0.37877,0.0414 -0.37651,0.17882 0.005,0.29642 0.96465,1.88838 1.22253,2.02777 0.27289,0.14751 0.97512,0.0942 1.38244,-0.10484 z m -2.50749,-1.03909 c -0.4137,-0.78848 -0.50512,-1.05586 -0.50512,-1.47749 0,-0.58335 0.43674,-1.98362 0.91287,-2.92683 0.25458,-0.50432 0.38917,-0.65236 0.73643,-0.81001 0.58054,-0.26356 1.42212,-0.26253 1.68672,0.002 0.39771,0.39771 1.31829,2.46045 1.31829,2.95388 0,0.15693 -0.22245,0.87759 -0.49434,1.60144 -0.27188,0.72386 -0.46969,1.3161 -0.43957,1.3161 0.0301,0 0.21116,-0.11927 0.40229,-0.26505 0.46525,-0.35487 1.17648,-1.33516 1.64291,-2.26446 0.38289,-0.76285 0.94756,-2.22447 0.88396,-2.28808 -0.0188,-0.0188 -0.20445,0.16966 -0.41263,0.41872 -0.20819,0.24905 -0.46327,0.45283 -0.56685,0.45283 -0.28289,0 -0.68702,-0.54413 -1.23331,-1.66052 -0.58815,-1.20192 -0.59519,-1.3128 -0.23851,-3.75265 0.1383,-0.94604 0.25196,-1.75524 0.25258,-1.79822 0.002,-0.14256 0.84974,-1.00149 1.28179,-1.29874 0.61929,-0.42609 0.78515,-0.3887 1.20798,0.27229 0.19874,0.31068 0.37408,0.54972 0.38964,0.53119 0.13263,-0.15795 -0.43118,-3.35382 -0.75002,-4.25134 l -0.19106,-0.53783 -0.007,1.0642 c -0.007,0.97019 -0.0304,1.09808 -0.26793,1.44762 -0.30758,0.45264 -1.42406,1.30412 -1.65235,1.26016 -0.18951,-0.0365 -1.65354,-1.89005 -1.89725,-2.40205 -0.2466,-0.51805 -0.25013,-3.84585 -0.005,-4.31741 0.19936,-0.38286 0.70468,-0.82421 1.04006,-0.90839 0.13483,-0.0338 0.24515,-0.0959 0.24515,-0.13792 0,-0.042 -0.2675,-0.19644 -0.59444,-0.34316 -0.99722,-0.44752 -1.94781,-0.32914 -2.91364,0.36285 l -0.4628,0.33159 0.46633,0.0551 c 0.60322,0.0713 0.95937,0.34558 1.30387,1.00429 0.26175,0.5005 0.27798,0.60783 0.2738,1.81054 -0.007,1.94138 -0.10877,2.57665 -0.57194,3.56127 -0.2209,0.46961 -0.53129,1.00676 -0.68975,1.19368 -0.26995,0.31844 -0.32042,0.33712 -0.80104,0.29655 -0.60536,-0.0511 -1.43286,-0.43868 -1.68897,-0.79109 -0.13837,-0.1904 -0.21143,-0.61202 -0.30628,-1.76775 l -0.12456,-1.51771 -0.17898,0.58182 c -0.4371,1.4208 -0.69462,3.24248 -0.68977,4.87929 l 0.003,1.11564 0.1813,-0.52469 c 0.0997,-0.28859 0.30378,-0.70975 0.45345,-0.93593 0.22521,-0.34032 0.32859,-0.41115 0.59954,-0.4108 0.38298,5e-4 1.3322,0.53909 1.60413,0.9102 0.21294,0.29062 0.80953,3.11758 0.82207,3.89546 0.01,0.58915 -0.78018,3.52244 -0.99666,3.7021 -0.21563,0.17896 -0.6912,-0.063 -1.27887,-0.65068 -0.58439,-0.5844 -0.58195,-0.50011 0.0233,0.80547 0.62751,1.3536 1.35351,2.29453 2.27823,2.95271 0.16695,0.11883 0.33734,0.21749 0.37865,0.21925 0.0413,0.002 -0.1522,-0.43001 -0.43002,-0.95949 z m 0.65503,-6.22492 c -0.26578,-0.29368 -0.3251,-1.27664 -0.10295,-1.70622 0.13543,-0.26189 0.22161,-0.31974 0.43866,-0.29447 0.35692,0.0416 0.52439,0.39338 0.52627,1.10551 0.001,0.42316 -0.052,0.63617 -0.20822,0.83474 -0.25199,0.32035 -0.40569,0.33456 -0.65376,0.0605 z m 0.60933,-0.69745 c 0.0715,-0.42315 -0.17344,-1.18036 -0.34708,-1.07304 -0.16103,0.0995 -0.30456,0.76005 -0.23969,1.10313 0.1315,0.69557 0.46707,0.67835 0.58677,-0.0301 z m 1.17396,0.68781 c -0.17025,-0.18274 -0.21156,-0.35727 -0.21156,-0.89376 0,-0.76832 0.17691,-1.11642 0.56739,-1.11642 0.49165,0 0.71839,1.12087 0.36837,1.82096 -0.2154,0.43082 -0.44357,0.49044 -0.7242,0.18922 z m 0.49314,-0.28345 c 0.13484,-0.25195 0.13452,-0.92696 -0.001,-1.28235 -0.0947,-0.24914 -0.121,-0.2614 -0.26071,-0.12169 -0.21636,0.21636 -0.29342,0.92547 -0.14064,1.29429 0.14671,0.3542 0.25526,0.38384 0.40195,0.10975 z m -1.43487,-1.70143 c -0.25923,-0.29718 -0.38269,-0.60289 -0.38551,-0.95457 l -0.003,-0.33549 -0.17252,0.27825 c -0.40242,0.64907 -0.95532,0.17439 -0.95532,-0.82017 0,-0.66653 0.124,-0.98145 0.42394,-1.07665 0.27156,-0.0862 0.39878,0.009 0.57445,0.42933 l 0.14805,0.35435 0.17045,-0.34032 c 0.0998,-0.19924 0.29006,-0.38183 0.45894,-0.44043 0.2563,-0.0889 0.31983,-0.065 0.56944,0.21434 l 0.28095,0.31445 0.11577,-0.38639 c 0.17386,-0.58028 0.67054,-0.65438 0.90705,-0.13532 0.1636,0.35908 0.14206,1.21192 -0.0395,1.563 -0.17745,0.34316 -0.58087,0.40865 -0.74815,0.12145 -0.0883,-0.15161 -0.10358,-0.13735 -0.10621,0.0991 -0.004,0.39506 -0.29893,1.0785 -0.5145,1.19387 -0.27724,0.14838 -0.55258,0.11843 -0.72465,-0.0788 z m 0.79525,-0.45804 c 0.32539,-0.62923 0.15818,-1.85743 -0.29084,-2.13632 -0.59845,-0.3717 -0.91875,1.60991 -0.37247,2.30438 0.2415,0.30702 0.44419,0.25566 0.66331,-0.16806 z m -1.58635,-0.77478 c 0.26329,-0.49195 0.001,-1.65765 -0.30461,-1.35609 -0.27707,0.273 -0.19487,1.5518 0.0998,1.5518 0.0551,0 0.14725,-0.0881 0.20486,-0.19571 z m 2.73544,-0.51255 c 0.0779,-0.28913 0.0779,-0.52032 0,-0.80945 -0.12653,-0.46988 -0.37187,-0.53707 -0.46184,-0.12647 -0.0335,0.15303 -0.0804,0.34003 -0.10409,0.41556 -0.0737,0.23459 0.15994,0.92508 0.31298,0.92508 0.0823,0 0.19061,-0.17323 0.25295,-0.40472 z m -2.03392,-1.58071 c -0.0749,-0.0903 -0.1535,-0.46933 -0.17457,-0.84229 -0.0345,-0.6104 -0.0126,-0.70766 0.21892,-0.9741 0.21195,-0.24389 0.28949,-0.27644 0.44043,-0.18488 0.43304,0.26264 0.5863,1.27805 0.28178,1.86693 -0.17498,0.33839 -0.5436,0.40299 -0.76656,0.13434 z m 0.61258,-0.52625 c 0.10306,-0.38273 -0.007,-1.06351 -0.18983,-1.17664 -0.1785,-0.11032 -0.35463,0.28934 -0.35463,0.80467 0,0.51652 0.17621,0.91494 0.35562,0.80406 0.0478,-0.0296 0.13282,-0.224 0.18884,-0.43209 z m -0.50158,10.53786 c 1.36631,-0.35494 1.49383,-0.75063 0.80756,-2.50589 -0.33432,-0.85508 -0.45757,-1.06834 -0.61741,-1.06834 -0.38978,0 -0.79525,0.30731 -1.03771,0.78648 -0.32159,0.63555 -0.82875,2.08924 -0.9209,2.63956 l -0.0739,0.4412 0.64316,-0.0743 c 0.35374,-0.0409 0.89337,-0.13928 1.19918,-0.21872 z m -2.39512,-1.83515 c 0.13351,-0.43474 0.34718,-1.22366 0.47483,-1.75314 l 0.23209,-0.9627 -0.35958,-1.79605 c -0.40301,-2.01298 -0.43723,-2.07728 -1.35167,-2.53994 -0.52716,-0.26672 -0.56858,-0.27294 -0.72956,-0.10953 -0.19597,0.19892 -0.19477,0.20025 0.61953,0.68352 0.42874,0.25444 0.46327,0.30877 0.61098,0.96122 0.24388,1.07725 0.37694,2.02458 0.37947,2.70175 0.003,0.69658 -0.50294,2.60321 -0.76787,2.89595 -0.14942,0.16512 -0.13805,0.19785 0.15426,0.44381 0.17358,0.14605 0.35591,0.26555 0.40518,0.26555 0.0493,0 0.19883,-0.3557 0.33234,-0.79044 z m -1.06913,-0.14548 c 0.11994,-0.14965 0.59377,-1.77624 0.6867,-2.35734 0.0715,-0.4471 -0.29119,-2.8286 -0.50776,-3.33408 -0.083,-0.1937 -0.31564,-0.40529 -0.64296,-0.58473 -0.47805,-0.26208 -0.51946,-0.26896 -0.60915,-0.10118 -0.16699,0.31238 -0.40098,1.26982 -0.46435,1.90008 -0.11264,1.12024 0.49159,3.67084 1.01773,4.29613 0.28562,0.33944 0.36948,0.36866 0.51979,0.18112 z m 7.42935,-0.35413 c 0.71924,-0.77333 0.95867,-1.28223 1.13815,-2.41916 0.0952,-0.60328 0.19885,-1.68878 0.23026,-2.41222 l 0.0571,-1.31535 -0.32195,-0.65768 c -0.17709,-0.36172 -0.40852,-0.7715 -0.51431,-0.91062 l -0.19233,-0.25295 -0.35269,0.18932 c -0.4266,0.229 -0.37786,-0.0451 -0.73432,4.12918 l -0.27374,3.20552 0.27542,0.3611 c 0.15148,0.19861 0.31012,0.3611 0.35253,0.3611 0.0424,0 0.19356,-0.12521 0.33589,-0.27824 z m -0.94273,-3.74369 c 0.12272,-1.43297 0.2491,-2.81029 0.28086,-3.06072 l 0.0578,-0.45531 -0.31221,0.30354 c -0.35758,0.34764 -0.41957,0.60086 -0.72255,2.95124 -0.17248,1.33808 -0.18005,1.58439 -0.0591,1.92244 0.20503,0.57289 0.38762,0.94421 0.46431,0.94421 0.0373,0 0.1682,-1.17243 0.29091,-2.6054 z m -4.48209,-4.54366 c 0.17604,-0.23079 0.4708,-0.77695 0.65504,-1.2137 0.30344,-0.71931 0.34308,-0.93225 0.42094,-2.26121 0.10423,-1.77884 0.0586,-2.16281 -0.3297,-2.77509 -0.40515,-0.63885 -0.85253,-0.8347 -1.38558,-0.60656 l -0.37942,0.16239 0.30354,0.2184 c 0.16695,0.12011 0.49705,0.40591 0.73356,0.63509 l 0.43002,0.41671 -0.002,0.84805 c -0.001,0.46643 -0.0468,1.16678 -0.10162,1.55632 -0.0912,0.6484 -0.16801,0.80928 -0.90863,1.90334 -0.44495,0.65729 -0.809,1.23329 -0.809,1.28 0,0.0946 0.6763,0.29787 0.90583,0.27227 0.0808,-0.009 0.291,-0.20522 0.46703,-0.43601 z m -0.87977,-1.14116 c 0.89803,-1.31445 0.94956,-1.46354 1.07529,-3.1109 l 0.0709,-0.92892 -0.40342,-0.43249 -0.40343,-0.4325 -0.35881,0.27368 c -0.43606,0.3326 -0.95354,0.96319 -1.33894,1.6316 -0.31702,0.54981 -0.33815,0.9593 -0.14657,2.84116 0.0808,0.7938 0.12642,0.93984 0.35558,1.13829 0.14458,0.12521 0.27673,0.22765 0.29365,0.22765 0.0169,0 0.40201,-0.5434 0.85576,-1.20757 z m 5.52237,0.5246 c 0.93453,-0.75837 0.99403,-0.92497 0.92541,-2.59075 l -0.0578,-1.40188 -0.42783,-0.80295 c -0.49639,-0.93162 -1.321,-1.90764 -1.61172,-1.90764 -0.51397,0 -1.30223,0.71487 -1.30223,1.181 0,0.14449 0.24095,0.60113 0.55649,1.05463 1.40983,2.02621 1.65367,2.38968 1.81424,2.70428 0.16817,0.3295 0.16636,0.34304 -0.0907,0.68005 -0.14426,0.18913 -0.42032,0.46441 -0.61349,0.61174 -0.19317,0.14734 -0.35121,0.30187 -0.35121,0.34341 0,0.10824 0.40531,0.60872 0.49297,0.60872 0.0405,0 0.34007,-0.21627 0.66581,-0.48061 z m -0.51209,-1.12563 c 0.18245,-0.2021 0.18353,-0.23215 0.0229,-0.64352 -0.14498,-0.37145 -1.69926,-2.67003 -2.00221,-2.96104 -0.0729,-0.07 -0.0925,0.35457 -0.0637,1.37774 l 0.0417,1.47893 0.5485,0.76264 0.5485,0.76263 0.35643,-0.28269 c 0.19605,-0.15547 0.44257,-0.37808 0.54782,-0.49469 z m -6.2248,-3.14405 c 0.17844,-0.27539 0.52763,-0.67956 0.77598,-0.89817 0.39246,-0.34546 0.43128,-0.41427 0.29671,-0.52595 -0.1286,-0.10673 -0.19881,-0.0874 -0.41444,0.11402 -0.14279,0.13337 -0.36672,0.42463 -0.49762,0.64722 -0.24943,0.42415 -0.57988,1.16358 -0.51999,1.16358 0.0192,0 0.1809,-0.22531 0.35936,-0.5007 z M 46.718174,141.02184 c 0.264334,-0.19958 0.480608,-0.39904 0.480608,-0.44326 0,-0.0442 -0.272532,-0.0804 -0.605627,-0.0804 h -0.605628 l -0.304999,0.6042 c -0.167749,0.33231 -0.304999,0.62919 -0.304999,0.65973 0,0.0998 0.848842,-0.36896 1.340645,-0.74028 z m 69.186936,0.0261 c 0.57548,-0.3314 0.73844,-0.80392 0.8177,-2.37102 0.038,-0.75127 0.1722,-2.75464 0.29823,-4.45195 0.15717,-2.1166 0.23063,-3.99186 0.23385,-5.96966 0.004,-2.65377 -0.0175,-3.02825 -0.27389,-4.69756 -0.47326,-3.08141 -0.83374,-4.42733 -1.59718,-5.96343 -1.99182,-4.00766 -5.46278,-6.71095 -9.3736,-7.30044 -1.2614,-0.19014 -1.79158,-0.18781 -2.96715,0.013 -1.88347,0.32175 -4.061396,1.19158 -5.709244,2.28019 -0.705827,0.46629 -2.637393,2.18763 -2.55135,2.27368 0.01718,0.0172 0.279547,-0.035 0.583031,-0.11591 2.188942,-0.58373 6.035013,-0.33359 8.736203,0.56818 1.14103,0.38093 2.65036,1.15854 3.51733,1.81215 2.42592,1.8289 4.52063,5.28556 5.55755,9.17099 0.71013,2.66099 0.94128,4.71164 0.87465,7.75988 -0.0537,2.45639 -0.18658,3.60511 -0.6458,5.58208 -0.14219,0.61215 -0.28242,1.2439 -0.31161,1.4039 l -0.0531,0.2909 1.25742,-0.0419 c 1.0185,-0.0339 1.32385,-0.0801 1.60695,-0.24313 z m -35.774439,-0.0454 c 3.296643,-0.0985 4.873493,-0.2214 5.220117,-0.40691 0.488932,-0.26167 1.6441,-5.03117 2.621234,-10.82265 0.469917,-2.7852 0.559805,-3.17743 1.133776,-4.94718 0.513863,-1.58443 1.217664,-3.23447 2.101238,-4.92629 l 0.691316,-1.3237 -0.562361,-0.75051 c -1.224869,-1.63466 -4.743823,-4.88826 -7.610971,-7.03706 -1.595938,-1.19608 -3.723062,-2.54417 -5.008446,-3.17416 -1.386105,-0.67935 -2.698198,-1.21385 -2.979794,-1.21385 -0.105631,0 -1.117518,0.20773 -2.248637,0.46161 -3.946533,0.88583 -17.746161,3.60528 -18.572088,3.65994 -0.712149,0.0471 -0.841743,0.031 -0.896456,-0.11157 -0.03518,-0.0917 0.0086,-0.27739 0.09725,-0.41271 0.15629,-0.23853 2.881411,-2.71684 4.999461,-4.54666 0.572209,-0.49435 1.021793,-0.91739 0.999075,-0.94011 -0.03573,-0.0357 -14.89813,1.28034 -16.322629,1.44537 l -0.522374,0.0605 -1.264432,1.43127 c -1.717555,1.94418 -5.463051,5.62569 -6.223525,6.11721 -0.340507,0.22008 -0.927575,0.52831 -1.304597,0.68495 -0.649239,0.26974 -0.783487,0.28693 -2.538357,0.32507 -2.169629,0.0472 -5.304062,-0.12204 -6.380639,-0.34442 -0.930108,-0.19211 -1.593457,-0.49434 -1.809818,-0.82455 -0.419503,-0.64024 0.529749,-5.28885 1.455755,-7.12903 0.132087,-0.26248 0.240157,-0.51317 0.240157,-0.55709 0,-0.0439 -0.232534,-0.18651 -0.516741,-0.3169 -0.298918,-0.13713 -0.820737,-0.53567 -1.237911,-0.94547 l -0.721169,-0.70841 -0.272472,0.32638 c -0.14986,0.17951 -0.852693,1.12885 -1.561855,2.10964 -1.618435,2.23836 -2.313203,3.11288 -2.591272,3.26169 -0.18482,0.0989 -0.24643,0.082 -0.402107,-0.11023 -0.149993,-0.18523 -0.184525,-0.41594 -0.187534,-1.25293 l -0.0037,-1.02589 -1.667307,1.69764 c -2.437471,2.48182 -3.832632,4.30951 -4.450635,5.83043 -0.300026,0.73837 -0.557551,2.34651 -0.860341,5.37247 -0.188169,1.88049 -0.254074,2.25082 -0.486171,2.73188 -0.228037,0.47264 -0.273594,0.71814 -0.302345,1.62928 -0.05641,1.78772 0.392676,5.80388 0.794441,7.10464 0.659795,2.13617 2.017128,4.43714 3.141931,5.32624 0.539468,0.42643 1.328933,0.66084 3.382491,1.00433 4.831343,0.80814 16.109665,1.744 32.377828,2.68667 9.73235,0.56394 22.331803,0.79763 30.2506,0.56105 z m -45.478297,-6.4408 c -2.939405,-0.13037 -12.776446,-1.33083 -15.666554,-1.91186 -2.427373,-0.48799 -4.902435,-1.47606 -5.29127,-2.11232 -0.311489,-0.5097 -0.793987,-1.86015 -1.068486,-2.99056 -0.312051,-1.28505 -0.281849,-2.32393 0.112749,-3.87829 0.520476,-2.05021 1.195381,-3.0188 2.352607,-3.37633 0.517805,-0.15999 0.965215,-0.18056 3.675582,-0.16901 3.176671,0.0135 13.660231,0.43164 17.37975,0.69314 1.153645,0.0811 2.803273,0.17782 3.665838,0.21494 1.80819,0.0778 2.696971,0.26723 3.768878,0.80327 0.968629,0.48438 1.640363,1.00012 2.321126,1.78209 1.254803,1.44135 6.527967,8.58304 6.626099,8.97403 0.147316,0.58695 -0.546432,1.13119 -1.757061,1.37838 -0.379059,0.0774 -1.440466,0.18883 -2.358681,0.24762 -3.252531,0.20824 -11.935075,0.42587 -13.760577,0.3449 z m 7.588553,-0.3358 c 3.896451,-0.12893 6.835803,-0.28508 7.834361,-0.41619 1.333494,-0.17509 2.18253,-0.58444 2.18253,-1.05227 0,-0.4021 -5.779864,-8.15428 -6.985629,-9.36939 -0.614477,-0.61924 -0.950143,-0.86097 -1.720286,-1.23887 -1.1957,-0.58671 -1.76752,-0.73145 -3.233409,-0.81843 -0.639968,-0.038 -2.575049,-0.15664 -4.300181,-0.2637 -5.708302,-0.35425 -12.996575,-0.63455 -16.745408,-0.64401 -3.287224,-0.008 -3.749426,0.0104 -4.205655,0.16969 -1.128828,0.39423 -1.751693,1.52149 -2.270968,4.10997 -0.185576,0.92506 -0.196882,1.1436 -0.09422,1.82125 0.144542,0.95415 0.513034,2.24186 0.924066,3.22921 0.265219,0.63708 0.381216,0.79402 0.768293,1.0395 1.061773,0.67336 3.666439,1.47013 6.042067,1.84827 3.066695,0.48815 9.660288,1.29966 12.748769,1.56907 1.429203,0.12466 5.54981,0.1319 9.055674,0.0159 z m 20.539685,-0.64203 c -2.271224,-0.67477 -3.761834,-1.96561 -4.001652,-3.46535 -0.267705,-1.67413 1.757216,-3.07124 4.456965,-3.07511 1.043496,-0.001 2.593826,0.23345 3.310941,0.50176 1.395036,0.52195 1.840426,1.21906 1.843527,2.88544 0.0022,1.18927 -0.139016,1.74159 -0.57119,2.2338 -0.922625,1.05082 -3.198542,1.46613 -5.038591,0.91946 z m 3.185593,-0.19818 0.403123,-0.14127 -0.355257,-0.11725 c -1.295228,-0.42746 -2.022917,-2.14464 -1.569616,-3.70394 0.133833,-0.46037 0.28833,-0.70503 0.713995,-1.1307 0.298762,-0.29876 0.62206,-0.54321 0.718439,-0.54321 0.339577,0 0.06098,-0.10776 -0.675712,-0.26136 -0.981771,-0.20471 -2.800082,-0.20164 -3.575551,0.006 -2.566603,0.68734 -3.310778,2.34264 -1.830607,4.07188 0.655365,0.76565 1.912697,1.44655 3.4353,1.86037 0.809594,0.22003 2.044567,0.20173 2.735886,-0.0405 z m 1.469513,-0.85786 c 0.391537,-0.39153 0.613895,-0.94936 0.59399,-1.49013 -0.0079,-0.21551 -0.02587,-0.24486 -0.06184,-0.10118 -0.0816,0.32589 -0.424973,0.75014 -0.738257,0.91215 -0.983825,0.50875 -2.05962,-0.485 -1.872909,-1.73007 0.05659,-0.37739 0.161173,-0.57721 0.456821,-0.87286 0.331197,-0.3312 0.446012,-0.38343 0.84288,-0.38343 0.525418,0 1.008054,0.32953 1.252302,0.85502 l 0.143417,0.30856 -0.05854,-0.44064 c -0.08179,-0.61564 -0.296003,-0.98154 -0.779828,-1.33202 -0.501947,-0.3636 -0.906034,-0.38455 -1.415334,-0.0734 -1.625426,0.99314 -1.526112,3.77134 0.162228,4.53817 0.66209,0.30071 1.031838,0.25304 1.475071,-0.1902 z m -0.179905,-1.03139 c 0.870287,-0.68457 0.457926,-2.37106 -0.579744,-2.37106 -0.5204,0 -0.965868,0.46829 -1.035818,1.08889 -0.09258,0.82138 0.368799,1.4811 1.035818,1.4811 0.179764,0 0.440649,-0.0895 0.579744,-0.19893 z m -55.601489,-1.80322 c -0.501634,-0.52359 -1.140712,-2.59795 -0.951942,-3.08988 0.146799,-0.38255 0.378641,-0.1221 1.022465,1.14863 0.66682,1.31611 0.804082,1.84418 0.546353,2.10191 -0.184146,0.18415 -0.320569,0.14862 -0.616876,-0.16066 z m 0.386671,-0.62143 c -0.172173,-0.48799 -0.950361,-2.03073 -1.024341,-2.03073 -0.226142,0 0.443389,2.03128 0.791758,2.4021 0.286513,0.30498 0.404656,0.11634 0.232583,-0.37137 z m 38.314122,-3.31118 c -0.369078,-0.0536 -1.234914,-0.86804 -2.668293,-2.50994 -0.864551,-0.99033 -0.992619,-1.37115 -0.594866,-1.76891 0.263436,-0.26343 0.427001,-0.28209 3.681326,-0.41998 2.750724,-0.11656 2.821881,-0.11466 3.086012,0.0822 0.5864,0.43706 0.675088,0.7484 0.675088,2.36985 0,1.62184 -0.03901,1.74017 -0.683527,2.07347 -0.286819,0.14832 -2.807209,0.27327 -3.49574,0.1733 z m 3.316327,-0.61685 c 0.449298,-0.2263 0.548408,-0.64094 0.463498,-1.93907 -0.06835,-1.04499 -0.244368,-1.54249 -0.603656,-1.70619 -0.162815,-0.0742 -0.926768,-0.0771 -2.499346,-0.009 -4.016279,0.1728 -4.093622,0.19956 -3.291143,1.13888 0.26388,0.30887 0.937654,1.04116 1.497275,1.62729 l 1.017493,1.06572 1.532325,-2.1e-4 c 1.257244,-1e-4 1.595377,-0.0319 1.883554,-0.17706 z m 79.783896,11.91699 c 20.87347,-2.28703 30.12317,-3.29094 32.63078,-3.54158 4.67574,-0.46735 7.21827,-0.93103 8.42316,-1.53612 0.30644,-0.15389 0.45729,-0.34557 0.78528,-0.99793 0.22329,-0.4441 0.38325,-0.80746 0.35548,-0.80746 -0.0278,0 -0.44754,0.22766 -0.9328,0.5059 -0.48527,0.27825 -0.93265,0.50591 -0.99417,0.50591 -0.0615,0 -0.6098,0.0657 -1.21841,0.14594 -1.63412,0.21552 -7.76253,0.89017 -13.85533,1.52527 -4.54277,0.47353 -35.94575,3.61781 -40.11367,4.01646 -1.56897,0.15007 -1.49397,0.0842 -1.5121,1.32799 l -0.0101,0.69186 0.37943,-0.059 c 0.20868,-0.0324 7.43678,-0.8322 16.06244,-1.77728 z m -9.66276,-0.96781 c 21.97784,-2.14632 44.60547,-4.47871 48.50308,-4.99953 1.58447,-0.21173 1.53176,-0.19399 2.75955,-0.929 l 0.82404,-0.49331 0.45246,-1.23914 c 0.60876,-1.66721 1.21807,-3.75146 1.63413,-5.5899 0.55512,-2.45282 1.55221,-5.31551 2.82983,-8.12464 0.88337,-1.9423 1.48145,-2.90117 2.6045,-4.17564 0.7737,-0.87802 2.1236,-2.0088 2.8343,-2.37423 0.97407,-0.50084 3.34708,-0.52836 4.69544,-0.0545 1.96608,0.69103 4.29367,3.617 4.9568,6.2311 0.55036,2.16962 0.60061,6.76241 0.10569,9.66144 -0.24805,1.45299 -0.8813,4.39727 -1.21322,5.64083 -0.15797,0.59183 -0.0747,0.66782 0.29485,0.26908 0.33259,-0.35887 0.6279,-1.30249 0.80612,-2.57572 0.17521,-1.25179 0.34191,-1.82014 1.20663,-4.11386 0.35378,-0.93843 0.67026,-1.84126 0.70326,-2.00629 0.033,-0.16503 0.12928,-1.52939 0.21392,-3.03193 0.0846,-1.50253 0.17402,-3.03242 0.1986,-3.39976 0.0246,-0.36734 -0.0175,-2.43901 -0.0935,-4.60372 -0.18168,-5.174 -0.4902,-7.10072 -1.44028,-8.99488 -0.7531,-1.501405 -1.36176,-2.29909 -4.16102,-5.453286 -0.78509,-0.884632 -1.56065,-1.84079 -1.72346,-2.124795 -0.47092,-0.821427 -1.55721,-2.106419 -3.25738,-3.853186 -1.19161,-1.224265 -1.83758,-1.992526 -2.63913,-3.138752 -1.07752,-1.540862 -4.65461,-6.809622 -6.55705,-9.658003 l -1.04428,-1.563545 0.17574,-0.306208 c 0.17454,-0.304147 0.17375,-0.307985 -0.11953,-0.57002 -0.33392,-0.298368 -1.602,-0.766731 -5.07821,-1.875637 -6.66656,-2.126622 -10.7055,-3.089826 -18.16827,-4.332749 -5.06069,-0.842859 -7.56196,-1.122011 -12.88691,-1.43823 -2.49276,-0.148031 -3.20396,-0.157185 -4.4166,-0.05685 -3.1709,0.262375 -6.51535,1.227235 -9.98713,2.88125 -1.04314,0.496962 -1.46267,0.798512 -4.88483,3.511049 -3.83023,3.035994 -4.39065,3.508815 -9.71803,8.19898 -1.69287,1.490383 -3.59094,3.140872 -4.21792,3.667753 -2.03452,1.70969 -4.71619,3.356732 -6.56235,4.0305 -2.014476,0.735193 -15.520116,2.656344 -22.301133,3.172293 -2.157409,0.164152 -5.642301,0.286765 -13.457035,0.473478 -7.13739,0.170529 -18.856646,-0.04169 -20.434739,-0.370043 -0.7107,-0.147876 -1.153598,-0.431066 -1.017802,-0.650788 0.0401,-0.06489 0.512326,-0.439678 1.049381,-0.832861 0.537055,-0.393182 1.021995,-0.757035 1.077644,-0.808562 0.303268,-0.280805 -2.755617,0.958025 -5.109626,2.069367 -1.979061,0.934326 -12.348629,7.019254 -15.386057,9.028635 -1.387157,0.91766 -2.522929,1.89648 -2.522929,2.17428 0,0.0429 0.318442,0.37838 0.707648,0.74554 0.670722,0.63273 1.349008,1.07703 1.644229,1.07703 0.07368,0 0.38283,-0.25404 0.687001,-0.56453 1.129954,-1.15342 1.372964,-1.19 7.011933,-1.05552 4.394545,0.10481 8.303444,0.26309 9.031103,0.36569 0.915757,0.12912 1.567575,0.75001 1.36014,1.29561 -0.05485,0.14426 -0.0667,0.26363 -0.02634,0.26528 0.04036,0.002 3.912759,-0.34996 8.605333,-0.78133 l 8.531951,-0.78431 1.839191,-1.57113 c 3.699419,-3.160223 4.560535,-3.815964 6.387771,-4.864288 2.145795,-1.231087 4.259703,-2.042866 8.554084,-3.284922 4.856815,-1.404728 6.109866,-1.602764 11.838143,-1.87094 2.34869,-0.109956 7.036895,-0.131154 7.622102,-0.03446 0.235161,0.03885 0.523754,0.192389 0.73356,0.390262 0.283909,0.26776 0.34588,0.400175 0.34588,0.739054 0,0.479179 -0.395018,1.790467 -0.838487,2.783414 l -0.308452,0.690638 -1.070718,0.536933 c -1.88589,0.945718 -7.057451,3.272489 -9.974619,4.487739 -0.667793,0.2782 -2.580109,1.12952 -4.24959,1.89184 -2.698094,1.23199 -4.130876,1.86 -4.980872,2.18317 -0.250642,0.0953 -0.193385,0.1344 0.881131,0.60189 3.243004,1.41094 6.829982,3.90715 10.833089,7.53884 1.212404,1.09992 2.680543,2.6669 3.344247,3.56939 l 0.30968,0.4211 1.018795,-1.54215 c 1.954261,-2.95817 4.124271,-4.71333 7.266153,-5.87705 1.61383,-0.59775 2.8399,-0.80168 4.49815,-0.74817 1.73086,0.0558 2.70291,0.28633 4.19032,0.99357 2.57954,1.22654 4.47765,2.95649 5.93798,5.41192 0.98923,1.66332 1.46583,3.01851 1.90122,5.4061 0.68116,3.73531 0.76118,6.1956 0.38063,11.70275 -0.11982,1.73415 -0.21787,3.18404 -0.21787,3.22199 0,0.0379 0.21627,0.0415 0.48061,0.008 0.26433,-0.0336 3.05313,-0.31232 6.19732,-0.61937 z m -2.56568,-2.68711 c -0.15902,-0.0439 -0.37996,-0.16208 -0.49097,-0.26255 -0.49405,-0.4471 -0.48464,-0.30686 -0.48525,-7.23548 0,-5.16439 -0.0417,-7.25696 -0.19975,-10.14839 -0.10956,-2.00338 -0.24724,-4.73526 -0.30597,-6.07084 -0.18392,-4.18266 -0.62618,-9.42628 -0.96433,-11.433422 -0.18897,-1.121723 -0.75202,-3.512047 -0.85327,-3.622416 -0.0409,-0.0446 -1.32187,0.0143 -2.84658,0.130888 -4.24468,0.32457 -4.86001,0.348935 -5.28341,0.209202 -0.51929,-0.171382 -0.61296,-0.399075 -0.53194,-1.293112 0.16917,-1.866847 0.982,-3.944555 2.04944,-5.238669 1.55452,-1.884613 11.17799,-11.551366 13.0342,-13.092819 2.92699,-2.430656 7.1941,-4.709764 10.3569,-5.531721 2.79422,-0.72617 7.09811,-0.753517 14.58415,-0.09267 2.20069,0.194271 3.80863,0.424264 7.48737,1.070955 7.40709,1.302103 13.06335,2.463164 16.2901,3.343865 1.08399,0.295866 1.19559,0.35028 1.63171,0.795638 1.06518,1.087749 1.6993,4.18639 1.7234,8.421373 l 0.01,1.694151 0.92303,0.842911 c 1.20794,1.103089 2.06584,1.760285 2.99724,2.296049 1.76112,1.013037 2.51384,1.658054 2.89156,2.477821 0.71147,1.544106 1.02298,6.859584 0.61075,10.421616 -0.34257,2.95998 -0.64494,4.17212 -2.02064,8.10023 -1.71555,4.89846 -2.4703,6.77915 -4.4643,11.1241 -1.66207,3.6217 -2.13461,4.46909 -2.93954,5.27139 -0.92329,0.92027 -2.70407,2.10275 -3.569,2.3699 -1.12135,0.34635 -3.80815,0.69631 -14.69102,1.91353 -17.03714,1.90556 -28.87633,3.15767 -32.58019,3.44566 -0.75127,0.0584 -1.5253,0.12117 -1.72008,0.13945 -0.19477,0.0183 -0.48424,-0.003 -0.64324,-0.0466 z m 5.55051,-0.95822 c 4.4176,-0.42611 5.45629,-0.53743 18.0027,-1.92947 l 9.90823,-1.09933 0.58374,-1.21417 c 0.65169,-1.35551 0.71488,-1.66302 0.89402,-4.35077 0.27256,-4.08943 0.65365,-17.80515 0.58195,-20.94441 -0.0524,-2.29381 -0.2153,-3.682565 -0.73582,-6.273204 -0.27878,-1.387524 -0.58047,-2.064659 -1.65777,-3.720877 -0.61551,-0.946253 -0.73947,-1.083451 -0.939,-1.039222 -0.36093,0.08001 -4.45967,0.531803 -6.85722,0.755859 -2.18332,0.204035 -3.28758,0.279106 -8.34741,0.567484 -4.87641,0.277922 -19.87776,1.324572 -19.94474,1.391552 -0.0243,0.02426 -0.002,0.154004 0.0487,0.288313 0.0511,0.13431 0.25497,0.948805 0.45313,1.809991 0.58561,2.545067 1.02757,6.694774 1.38447,12.999214 0.11341,2.00338 0.27936,4.71249 0.36875,6.02025 0.11146,1.63046 0.18204,4.63033 0.22456,9.54515 l 0.062,7.1674 0.29819,0.25638 c 0.3515,0.30223 0.008,0.31618 5.67147,-0.23014 z m 20.54102,-32.26363 c -1.28794,-0.481469 -0.62021,-1.433738 1.3839,-1.973615 1.77701,-0.478699 4.22155,-0.758944 5.37202,-0.615851 0.84346,0.104909 1.32546,0.429123 1.49898,1.008259 0.23668,0.789965 -0.0635,1.220276 -0.85197,1.221467 -0.28819,4.05e-4 -1.5712,0.09262 -2.85113,0.20485 -3.54425,0.3108 -4.08548,0.32921 -4.5518,0.15489 z m 3.23645,-0.306114 c 0.89039,-0.08092 2.30082,-0.197216 3.13427,-0.258438 0.95018,-0.0698 1.54398,-0.156289 1.59205,-0.231894 0.0422,-0.06632 0.0774,-0.272059 0.0782,-0.457199 0.002,-0.425937 -0.41585,-0.866015 -0.96764,-1.019217 -1.46622,-0.407086 -6.38833,0.457928 -7.19482,1.264422 -0.3216,0.3216 -0.29324,0.530744 0.0949,0.699423 0.42411,0.184337 1.25846,0.185077 3.26308,0.0029 z m -13.02702,31.747764 c -0.0974,-0.0255 -0.25675,-0.0255 -0.35413,0 -0.0974,0.0255 -0.0177,0.0463 0.17706,0.0463 0.19478,0 0.27446,-0.0208 0.17707,-0.0463 z m 0.91063,-0.10119 c -0.0974,-0.0255 -0.25675,-0.0255 -0.35414,0 -0.0974,0.0255 -0.0177,0.0463 0.17707,0.0463 0.19477,0 0.27445,-0.0208 0.17707,-0.0463 z m 0.91062,-0.10118 c -0.0974,-0.0255 -0.25674,-0.0255 -0.35413,0 -0.0974,0.0255 -0.0177,0.0463 0.17707,0.0463 0.19477,0 0.27445,-0.0208 0.17706,-0.0463 z m 0.91063,-0.10118 c -0.0974,-0.0255 -0.25675,-0.0255 -0.35413,0 -0.0974,0.0255 -0.0177,0.0463 0.17706,0.0463 0.19478,0 0.27446,-0.0208 0.17707,-0.0463 z m 0.91063,-0.10118 c -0.0974,-0.0255 -0.25675,-0.0255 -0.35414,0 -0.0974,0.0255 -0.0177,0.0463 0.17707,0.0463 0.19477,0 0.27445,-0.0208 0.17707,-0.0463 z m 1.01299,-0.10095 c -0.0967,-0.0253 -0.27887,-0.0262 -0.40473,-0.002 -0.12587,0.0242 -0.0467,0.0449 0.17589,0.046 0.22259,10e-4 0.32557,-0.0187 0.22884,-0.044 z m 0.91062,-0.10118 c -0.0967,-0.0253 -0.27886,-0.0262 -0.40472,-0.002 -0.12587,0.0242 -0.0467,0.0449 0.17588,0.046 0.2226,10e-4 0.32557,-0.0187 0.22884,-0.044 z m 0.91063,-0.10118 c -0.0967,-0.0253 -0.27886,-0.0262 -0.40472,-0.002 -0.12587,0.0242 -0.0467,0.0449 0.17588,0.046 0.2226,10e-4 0.32557,-0.0187 0.22884,-0.044 z m 0.91063,-0.10118 c -0.0967,-0.0253 -0.27887,-0.0262 -0.40473,-0.002 -0.12587,0.0242 -0.0467,0.0449 0.17589,0.046 0.22259,0.001 0.32556,-0.0187 0.22884,-0.044 z m 0.91062,-0.10118 c -0.0967,-0.0253 -0.27886,-0.0262 -0.40472,-0.002 -0.12587,0.0242 -0.0467,0.0449 0.17588,0.046 0.2226,0.001 0.32557,-0.0187 0.22884,-0.044 z m 0.91063,-0.10118 c -0.0967,-0.0253 -0.27887,-0.0262 -0.40472,-0.002 -0.12587,0.0242 -0.0467,0.0449 0.17588,0.046 0.2226,0.001 0.32557,-0.0187 0.22884,-0.044 z m 0.91062,-0.10119 c -0.0967,-0.0253 -0.27886,-0.0262 -0.40472,-0.002 -0.12587,0.0242 -0.0467,0.0449 0.17588,0.046 0.2226,10e-4 0.32557,-0.0187 0.22884,-0.044 z m 0.91063,-0.10118 c -0.0967,-0.0253 -0.27886,-0.0262 -0.40472,-0.002 -0.12587,0.0242 -0.0467,0.0449 0.17588,0.046 0.2226,10e-4 0.32557,-0.0187 0.22884,-0.044 z m 0.85885,-0.10306 c -0.12521,-0.0241 -0.3301,-0.0241 -0.45531,0 -0.12521,0.0241 -0.0228,0.0438 0.22766,0.0438 0.25042,0 0.35286,-0.0197 0.22765,-0.0438 z m 2.45364,-0.22557 c 0.83474,-0.10142 1.35835,-0.18735 1.16357,-0.19097 -0.19477,-0.004 -1.0371,0.0764 -1.87184,0.17784 -0.83474,0.10141 -1.35835,0.18735 -1.16358,0.19096 0.19478,0.004 1.03711,-0.0764 1.87185,-0.17783 z m 2.15127,-0.27845 c -0.0967,-0.0253 -0.27886,-0.0262 -0.40472,-0.002 -0.12587,0.0242 -0.0467,0.0449 0.17588,0.046 0.2226,0.001 0.32557,-0.0187 0.22884,-0.044 z m 0.91063,-0.10118 c -0.0967,-0.0253 -0.27887,-0.0262 -0.40473,-0.002 -0.12587,0.0242 -0.0467,0.0449 0.17589,0.046 0.22259,0.001 0.32557,-0.0187 0.22884,-0.044 z m 0.91062,-0.10118 c -0.0967,-0.0253 -0.27886,-0.0262 -0.40472,-0.002 -0.12587,0.0242 -0.0467,0.0449 0.17588,0.046 0.2226,0.001 0.32557,-0.0187 0.22884,-0.044 z m 0.91063,-0.10118 c -0.0967,-0.0253 -0.27887,-0.0262 -0.40472,-0.002 -0.12587,0.0242 -0.0467,0.0449 0.17588,0.0461 0.2226,0.001 0.32557,-0.0187 0.22884,-0.044 z m 0.91063,-0.10118 c -0.0967,-0.0253 -0.27887,-0.0262 -0.40473,-0.002 -0.12587,0.0242 -0.0467,0.0449 0.17589,0.0461 0.22259,0.001 0.32556,-0.0187 0.22884,-0.044 z m 2.46192,-0.58829 c 8.70833,-0.96966 10.0281,-1.17174 11.17099,-1.71043 0.83065,-0.39151 2.11965,-1.32699 2.84792,-2.06684 0.70734,-0.71859 1.67361,-2.61709 4.1026,-8.06074 1.27525,-2.85799 3.70287,-9.38372 4.37519,-11.76102 0.5201,-1.8391 0.87633,-4.36332 1.0247,-7.260955 0.10821,-2.113179 -0.25463,-5.864001 -0.67626,-6.9909 -0.26496,-0.70818 -1.06429,-1.446715 -2.49819,-2.308186 -1.26565,-0.760391 -2.19948,-1.473494 -3.38727,-2.586659 l -0.78806,-0.738544 -0.35924,0.419689 c -0.75355,0.880356 -2.32008,1.789776 -4.11928,2.391378 -2.19901,0.735282 -9.22175,2.400109 -12.1073,2.870185 -1.00546,0.163796 -3.88376,0.57179 -5.23654,0.74227 -0.21258,0.02679 -0.17916,0.104396 0.49166,1.141732 1.04752,1.619828 1.25578,2.119611 1.60219,3.844867 0.52722,2.625714 0.7144,4.450683 0.71391,6.960043 -0.001,4.74094 -0.50099,17.64175 -0.81278,20.96923 -0.18817,2.00823 -0.2717,2.35938 -0.8295,3.48734 -0.28896,0.58432 -0.54219,1.09654 -0.56274,1.13828 -0.0476,0.0967 -0.6703,0.15598 5.048,-0.48074 z m 14.79046,-31.901361 c -0.89227,-0.283481 -0.79956,-1.142826 0.17706,-1.641057 1.0565,-0.538992 3.3934,-1.009609 5.01653,-1.010256 0.89463,-4.05e-4 1.06502,0.02824 1.36594,0.229267 0.62421,0.416998 0.89751,1.344804 0.52086,1.768207 -0.15512,0.174379 -0.49055,0.227633 -2.70658,0.429701 -2.92388,0.266612 -4.05731,0.324695 -4.37381,0.224138 z m 3.50187,-0.427726 c 1.13428,-0.110208 2.29801,-0.200379 2.58607,-0.200379 0.73222,0 0.91258,-0.154749 0.83702,-0.71816 -0.11592,-0.864468 -0.8843,-1.205714 -2.38345,-1.058526 -1.82041,0.178727 -4.01818,0.772183 -4.56564,1.232841 -0.39517,0.332519 -0.4073,0.682788 -0.0287,0.829436 0.4415,0.171018 0.65517,0.201875 1.0877,0.157081 0.22259,-0.02305 1.33276,-0.132084 2.46702,-0.242293 z M 158.57463,129.2988 c -0.0967,-0.0253 -0.27886,-0.0262 -0.40472,-0.002 -0.12587,0.0242 -0.0467,0.0449 0.17588,0.0461 0.2226,0.001 0.32557,-0.0187 0.22884,-0.044 z m 0.91063,-0.10118 c -0.0967,-0.0253 -0.27887,-0.0262 -0.40472,-0.002 -0.12587,0.0242 -0.0467,0.0449 0.17588,0.0461 0.2226,0.001 0.32557,-0.0187 0.22884,-0.044 z m 0.91062,-0.10119 c -0.0967,-0.0253 -0.27886,-0.0262 -0.40472,-0.002 -0.12587,0.0242 -0.0467,0.0449 0.17588,0.046 0.2226,0.001 0.32557,-0.0187 0.22884,-0.044 z m 0.80827,-0.1014 c -0.0974,-0.0255 -0.25675,-0.0255 -0.35414,0 -0.0974,0.0254 -0.0177,0.0463 0.17707,0.0463 0.19477,0 0.27445,-0.0208 0.17707,-0.0463 z m 0.91062,-0.10118 c -0.0974,-0.0254 -0.25674,-0.0254 -0.35413,0 -0.0974,0.0255 -0.0177,0.0463 0.17707,0.0463 0.19477,0 0.27445,-0.0208 0.17706,-0.0463 z m 0.91063,-0.10118 c -0.0974,-0.0254 -0.25675,-0.0254 -0.35413,0 -0.0974,0.0255 -0.0177,0.0463 0.17706,0.0463 0.19478,0 0.27446,-0.0208 0.17707,-0.0463 z m 0.91063,-0.10119 c -0.0974,-0.0255 -0.25675,-0.0255 -0.35414,0 -0.0974,0.0254 -0.0177,0.0463 0.17707,0.0463 0.19477,0 0.27445,-0.0208 0.17707,-0.0463 z m 0.80944,-0.10118 c -0.0974,-0.0255 -0.25674,-0.0255 -0.35413,0 -0.0974,0.0254 -0.0177,0.0463 0.17707,0.0463 0.19477,0 0.27445,-0.0208 0.17706,-0.0463 z m 0.91063,-0.10118 c -0.0974,-0.0255 -0.25675,-0.0255 -0.35413,0 -0.0974,0.0254 -0.0177,0.0463 0.17706,0.0463 0.19477,0 0.27445,-0.0208 0.17707,-0.0463 z M 114.28159,94.565683 c 3.8847,-0.278998 3.62115,-0.229755 3.69501,-0.690362 0.2931,-1.82774 0.77316,-2.864408 1.7503,-3.77971 0.72176,-0.676068 1.85146,-1.401941 2.18191,-1.401941 0.10727,0 0.367,0.180776 0.57718,0.401724 l 0.38215,0.401724 0.0649,-0.5282 c 0.0447,-0.363749 -0.0151,-1.000724 -0.19206,-2.04591 -0.53703,-3.172161 -0.72745,-5.889281 -0.46174,-6.588169 0.24759,-0.651199 3.09947,-3.626801 4.75115,-4.957268 2.11316,-1.702196 4.10404,-2.629108 7.45004,-3.468588 3.14485,-0.789009 5.16501,-1.030686 9.16869,-1.096871 l 3.21229,-0.0531 0.1473,0.352561 c 0.45536,1.0898 1.42446,4.821075 1.88602,7.261667 0.89711,4.743443 0.93234,5.070301 1.26571,11.742696 l 0.0685,1.371673 -3.37836,0.277435 c -1.8581,0.15259 -4.99405,0.373739 -6.96878,0.491443 -2.62314,0.156353 -3.62679,0.25039 -3.72546,0.349058 -0.17278,0.172777 -0.3062,0.203224 -1.89157,0.431673 -1.64743,0.237393 -1.46267,0.245834 1.31535,0.0601 1.22429,-0.08186 3.54639,-0.21931 5.16022,-0.305455 1.61383,-0.08614 3.93593,-0.248341 5.16021,-0.360437 2.63766,-0.241504 7.44901,-0.782004 7.51075,-0.843748 0.0239,-0.02386 -0.0328,-0.159741 -0.12603,-0.301954 -0.13185,-0.201219 -0.19928,-0.736157 -0.30403,-2.41182 -0.16981,-2.716363 -0.70124,-6.112103 -1.71693,-10.970829 -0.26889,-1.286302 -2.09289,-7.776706 -2.22168,-7.905493 -0.0461,-0.04609 -3.16185,-0.304615 -5.0859,-0.421998 -3.37338,-0.205805 -6.35353,-0.09697 -8.2976,0.303039 -3.37524,0.694485 -7.81988,2.963491 -11.10771,5.670535 -1.11662,0.919374 -10.91999,10.677859 -12.34098,12.284481 -1.08108,1.222313 -1.50213,1.860862 -1.94779,2.95398 -0.59192,1.451866 -0.94411,3.634323 -0.61892,3.835303 0.23951,0.148024 0.75538,0.232079 1.19771,0.195149 0.25042,-0.02091 1.79848,-0.134479 3.44014,-0.252383 z m -0.55649,-2.115151 c -0.46845,-0.124237 -0.93274,-0.39362 -1.10685,-0.642195 -0.2683,-0.383054 -0.20164,-1.083198 0.15737,-1.653032 0.88085,-1.398089 4.51933,-5.590305 5.35384,-6.168622 0.66248,-0.459098 1.39052,-0.216153 1.88602,0.629361 0.21075,0.359618 0.27121,0.618407 0.30985,1.32629 l 0.048,0.879493 -1.08271,0.854417 c -0.59549,0.469929 -1.19502,1.001677 -1.3323,1.181662 -0.13728,0.179984 -0.49688,0.907199 -0.79913,1.616032 -0.60225,1.412459 -0.74218,1.619096 -1.23872,1.829189 -0.39895,0.1688 -1.76808,0.260729 -2.19537,0.147405 z m 2.25004,-0.481309 c 0.32267,-0.237769 0.46011,-0.48696 1.10907,-2.010794 0.52508,-1.232995 0.96538,-1.758234 2.28793,-2.729318 0.37622,-0.276238 0.70839,-0.599311 0.73817,-0.717941 0.0828,-0.329911 -0.15431,-1.470043 -0.38306,-1.841885 -0.22877,-0.371892 -0.65374,-0.629927 -1.03743,-0.629927 -0.30281,0 -1.29114,0.948245 -2.84736,2.731879 -2.05178,2.35161 -3.03753,3.674957 -3.13855,4.213417 -0.084,0.447809 0.15046,0.802813 0.70024,1.06021 0.59205,0.277187 2.15455,0.231217 2.57099,-0.07564 z m 7.5139,1.932683 c 3.6592,-0.244147 11.07438,-1.07793 12.15049,-1.366233 0.51445,-0.137827 0.62786,-0.44273 0.67642,-1.818388 0.0479,-1.355783 -0.10935,-2.196228 -0.58825,-3.144923 -0.87763,-1.738576 -2.33538,-2.26339 -6.269,-2.256945 -1.79125,0.0029 -2.17971,0.03251 -2.84758,0.21681 -0.883,0.243662 -1.82576,0.693078 -2.31176,1.102028 -0.56569,0.475994 -0.98764,1.576882 -1.26441,3.298879 -0.0765,0.475646 -0.20404,0.483786 -0.35621,0.02273 -0.15072,-0.456694 -0.57201,-0.958646 -0.80461,-0.958646 -0.29743,0 -1.63561,0.940257 -2.21158,1.553948 -0.63062,0.671915 -1.05072,1.535374 -1.27478,2.620122 -0.24381,1.180344 -0.27204,1.123545 0.52284,1.052003 0.37563,-0.03381 2.43592,-0.17843 4.57843,-0.32138 z m 16.69481,-1.928564 c 2.93421,-0.163975 9.69079,-0.693862 9.76256,-0.765633 0.0217,-0.02169 -0.002,-0.65314 -0.0533,-1.403216 -0.051,-0.750076 -0.13849,-2.342698 -0.19446,-3.53916 -0.107,-2.286864 -0.29319,-3.676189 -1.01128,-7.546027 -0.46109,-2.484909 -0.70046,-3.471525 -1.42566,-5.876195 -0.27564,-0.913949 -0.50115,-1.682686 -0.50115,-1.708305 0,-0.09224 -5.56734,-0.04423 -6.59132,0.05685 -4.55642,0.449763 -9.26747,1.814974 -11.53243,3.341972 -1.55784,1.050267 -3.97671,3.275751 -5.40376,4.971735 -0.67896,0.80692 -0.74581,0.927495 -0.81338,1.46712 -0.0405,0.32337 -0.0213,1.1769 0.0426,1.896733 0.11186,1.259509 0.57221,4.49955 0.68379,4.812645 0.0348,0.09775 0.1439,-0.03654 0.30643,-0.377307 0.80841,-1.695021 3.28736,-2.460389 7.2654,-2.243166 2.50652,0.136869 3.94927,0.583129 4.65003,1.438307 0.45087,0.550234 0.90823,1.483067 1.07569,2.193973 0.14032,0.595682 0.18813,2.810449 0.0702,3.250512 -0.0697,0.2599 -0.0619,0.264859 0.35757,0.227994 0.23584,-0.02073 1.72644,-0.110202 3.31244,-0.198834 z m 15.59149,-0.654203 c 4.96183,-0.660851 11.10461,-1.964822 15.31922,-3.251918 2.75093,-0.840102 4.63479,-2.035622 5.01287,-3.181235 0.093,-0.281795 0.10985,-0.846505 0.0629,-2.108178 -0.15312,-4.114124 -0.74931,-6.787214 -1.72425,-7.730994 -0.24459,-0.236773 -0.5941,-0.385201 -1.5452,-0.656201 -2.69235,-0.767138 -6.81583,-1.631908 -14.25154,-2.988809 -4.95675,-0.90453 -9.25803,-1.536589 -9.25803,-1.360437 0,0.03113 0.41295,1.360772 0.91767,2.954769 1.0342,3.266177 1.13069,3.640798 1.828,7.097013 0.82248,4.076574 1.20067,6.481735 1.30462,8.296979 0.12996,2.269204 0.16224,2.487582 0.419,2.834875 0.12269,0.16595 0.253,0.301727 0.28959,0.301727 0.0366,0 0.7679,-0.09342 1.62516,-0.207591 z m -0.11084,-0.68196 c 0,-0.176757 -1.45783,-7.849789 -2.02584,-10.662665 -0.74042,-3.666652 -1.10406,-5.289886 -1.57838,-7.045636 -0.20006,-0.740597 -0.34189,-1.368418 -0.31514,-1.395157 0.11404,-0.114039 11.10532,1.632772 13.81841,2.196117 2.32778,0.483341 2.25219,0.427273 2.69387,1.998208 0.45854,1.630856 2.48301,11.079461 2.48301,11.588678 0,0.07744 -0.1924,0.217785 -0.42754,0.311871 -0.96093,0.384489 -5.95759,1.491476 -11.6205,2.57447 -2.79004,0.533576 -3.02789,0.567676 -3.02789,0.434114 z m 3.65493,-0.835892 c 5.39031,-1.039865 9.88044,-2.038643 10.83921,-2.411058 0.15304,-0.05944 0.27825,-0.160326 0.27825,-0.224182 0,-0.151912 -1.23984,-6.22468 -1.62992,-7.983363 -0.41226,-1.858698 -0.7667,-3.266233 -1.01127,-4.015872 -0.19678,-0.603145 -0.22189,-0.632005 -0.67871,-0.78003 -1.13439,-0.367577 -6.52373,-1.323892 -12.00898,-2.130943 -1.33559,-0.196506 -2.57632,-0.382311 -2.75718,-0.4129 -0.18086,-0.03059 -0.32825,-0.04217 -0.32753,-0.02574 0.001,0.01643 0.0905,0.314216 0.1994,0.661737 0.47592,1.518109 2.19784,9.779558 3.3005,15.835304 0.24253,1.331942 0.42602,2.099499 0.50188,2.099499 0.0658,0 1.54823,-0.275605 3.29435,-0.612455 z m 12.1807,-2.448261 c -0.0635,-0.185026 -2.78339,-12.656654 -2.78335,-12.762522 1.1e-4,-0.270167 2.15613,0.344243 2.37382,0.676472 0.29655,0.45259 3.41881,9.43781 3.41881,9.838624 0,0.317048 -0.35043,0.740871 -1.1254,1.361118 -0.61705,0.493842 -1.50489,1.012784 -1.73276,1.012784 -0.0592,0 -0.12726,-0.05691 -0.15112,-0.126476 z m 1.68257,-1.089519 c 0.35406,-0.283365 0.75215,-0.65269 0.88463,-0.820723 l 0.24089,-0.305514 -1.22846,-3.559083 c -0.67566,-1.957494 -1.44426,-4.150741 -1.70801,-4.87388 l -0.47955,-1.3148 -0.55649,-0.219786 c -0.30608,-0.120883 -0.73221,-0.252342 -0.94697,-0.292131 -0.35153,-0.06513 -0.38467,-0.05335 -0.33227,0.118056 0.032,0.10472 0.63191,2.831216 1.3331,6.058881 0.70119,3.227664 1.29374,5.926778 1.31678,5.998032 0.0592,0.183038 0.66894,-0.142846 1.47635,-0.789052 z m 21.30009,43.403123 c 0.27653,-0.91579 1.05654,-4.56777 1.31914,-6.17624 0.24021,-1.47133 0.27027,-1.92458 0.26448,-3.98719 -0.007,-2.46477 -0.12829,-3.85454 -0.44567,-5.1038 -0.62199,-2.44827 -2.9179,-5.3554 -4.74535,-6.00866 -1.42006,-0.50763 -3.5279,-0.48996 -4.55313,0.0382 -0.51785,0.26676 -1.92825,1.42758 -2.48171,2.04256 l -0.47926,0.53255 1.10105,0.0728 c 2.50463,0.16564 4.31805,0.90275 5.74828,2.33654 1.90185,1.90656 3.35495,5.71829 3.92232,10.28882 0.14328,1.15412 0.18012,5.72997 0.05,6.20723 -0.13341,0.48925 0.14749,0.26182 0.29987,-0.24279 z M 34.32304,113.79997 c 0.458834,-0.18224 1.118129,-0.5444 1.465101,-0.8048 1.34592,-1.01008 6.997628,-6.88592 7.467202,-7.76333 0.135109,-0.25245 0.126914,-0.28473 -0.127932,-0.50394 -0.149759,-0.12882 -0.512928,-0.28129 -0.807043,-0.33883 -0.772813,-0.15117 -4.757977,-0.31074 -9.590428,-0.38399 -5.085361,-0.0771 -5.038704,-0.0843 -6.039157,0.93602 -0.382883,0.3905 -0.771053,0.91968 -0.97692,1.33182 -0.753259,1.508 -1.537281,4.53611 -1.602581,6.18961 -0.01778,0.45028 0.01973,0.65193 0.147542,0.79316 0.530711,0.58643 3.435568,0.93736 7.408719,0.89503 1.799479,-0.0192 1.831226,-0.0234 2.655497,-0.35075 z m -5.188815,-1.83519 c -0.79382,-0.24633 -1.140174,-1.13091 -0.822768,-2.10132 0.0881,-0.26936 0.133752,-0.59086 0.101438,-0.71443 -0.07211,-0.27573 0.593584,-1.33221 0.839428,-1.33221 0.08955,0 0.558431,-0.37563 1.041954,-0.83474 1.041379,-0.98879 1.637606,-1.31636 2.498468,-1.37265 1.199863,-0.0785 1.775361,0.44774 1.750271,1.60031 -0.0079,0.36172 0.02132,0.74501 0.06488,0.85176 0.111093,0.27226 -0.432619,1.28598 -0.777433,1.44947 -0.145982,0.0692 -0.476641,0.37309 -0.734798,0.67527 -1.156888,1.35415 -2.86203,2.1197 -3.961436,1.77854 z m 2.076461,-0.61397 c 0.346941,-0.18492 0.933149,-0.63455 1.302685,-0.99918 l 0.671882,-0.66296 -0.382837,-0.0316 c -0.333826,-0.0276 -0.44982,0.0286 -0.906063,0.43882 -0.73315,0.65916 -1.422653,0.99261 -2.07155,1.00183 -0.730217,0.0104 -0.886903,-0.16239 -0.864972,-0.95368 0.01908,-0.68837 -0.175803,-0.84099 -0.368402,-0.2885 -0.270114,0.77485 -0.03652,1.56667 0.535276,1.81442 0.432904,0.18758 1.41564,0.0371 2.083981,-0.31915 z m -0.55495,-0.73707 c 0.278247,-0.13008 0.73356,-0.44655 1.011807,-0.70325 l 0.505903,-0.46674 -1.393739,-0.004 -1.393739,-0.004 -0.09868,0.25954 c -0.135556,0.35654 -0.123864,0.88897 0.02274,1.03557 0.192503,0.19251 0.795795,0.14002 1.345704,-0.11708 z m 3.468834,-1.92369 c 0.128582,-0.27099 0.208348,-0.51814 0.177256,-0.54924 -0.03109,-0.0311 -1.168757,-0.0771 -2.528145,-0.10226 l -2.471615,-0.0457 -0.309843,0.48857 c -0.170413,0.26871 -0.275055,0.52336 -0.232537,0.56588 0.0904,0.0904 1.594158,0.14814 3.665344,0.14074 l 1.465753,-0.005 0.233787,-0.49271 z m -2.586796,-2.14913 c 0.927885,-0.4702 1.811488,-0.42367 2.163738,0.11393 0.143166,0.2185 0.155126,0.34042 0.06992,0.71278 -0.102745,0.44899 -0.102664,0.44919 0.180515,0.44919 0.256488,0 0.289516,-0.0414 0.348909,-0.43747 0.101499,-0.67685 -0.13758,-1.14061 -0.721072,-1.39871 -0.86876,-0.3843 -1.818121,-0.0227 -3.005102,1.14462 -0.619208,0.60895 -0.639068,0.63782 -0.132487,0.19259 0.327747,-0.28805 0.820758,-0.63767 1.09558,-0.77693 z m 1.902935,1.01637 c 0.159038,-0.41831 0.115376,-0.7291 -0.126198,-0.89831 -0.53331,-0.37354 -1.649309,-0.0464 -2.507004,0.73481 l -0.455314,0.41473 1.49492,0.004 1.49492,0.004 0.09868,-0.25953 z m 23.699251,2.33709 c 7.21893,-1.38703 16.108423,-3.21813 18.019306,-3.7117 0.659002,-0.17022 1.61516,-0.4792 2.124795,-0.68663 1.288051,-0.52427 3.812579,-1.65668 3.775641,-1.69362 -0.01678,-0.0168 -0.550855,0.17951 -1.186823,0.43622 -1.49383,0.60298 -2.376739,0.85637 -7.024786,2.0161 -8.424203,2.1019 -15.767978,3.5744 -16.682223,3.34494 -0.14605,-0.0367 -0.265547,-0.12909 -0.265547,-0.20541 0,-0.16675 2.251785,-2.35657 4.030468,-3.91956 3.426581,-3.01106 6.614917,-5.29388 9.251818,-6.62423 2.741115,-1.382927 8.742979,-3.672797 13.357532,-5.096253 1.659177,-0.511809 1.535829,-0.559124 2.239768,0.859157 0.84404,1.70055 1.494101,4.061337 1.639622,5.954516 l 0.06528,0.84927 0.770193,-0.31429 c 0.50858,-0.20753 0.701458,-0.32687 0.567833,-0.35132 -0.111298,-0.0204 -0.233354,-0.0668 -0.271234,-0.1031 -0.03788,-0.0363 -0.190236,-0.657973 -0.338568,-1.381415 -0.320689,-1.564062 -0.870172,-3.424339 -1.208934,-4.092853 -0.134004,-0.264443 -0.453734,-0.787675 -0.710511,-1.162737 -0.256778,-0.375062 -0.452392,-0.75746 -0.434699,-0.849773 0.0244,-0.127308 0.190698,-0.183472 0.688613,-0.232565 1.664825,-0.164145 5.695012,-0.319337 8.548538,-0.32918 2.128619,-0.0073 2.908993,-0.03663 2.428337,-0.09114 -1.2249,-0.138901 -7.967107,0.06445 -11.231059,0.338737 -1.984914,0.166804 -4.072238,0.619067 -7.709877,1.670509 -5.937586,1.71623 -8.497924,2.934945 -11.767411,5.601257 -3.551974,2.89669 -11.534601,9.90942 -11.534601,10.13314 0,0.16185 0.438239,0.10696 2.858529,-0.35807 z m 1.000731,-0.71378 c 2.803306,-0.42105 9.002621,-1.77473 15.112125,-3.29989 4.850347,-1.21083 5.444988,-1.41385 10.927517,-3.73091 0.946039,-0.39982 1.783254,-0.75258 1.860477,-0.78391 0.325282,-0.13198 -0.06745,-2.704227 -0.714379,-4.678943 -0.355322,-1.084597 -1.234975,-2.916458 -1.437858,-2.994311 -0.172303,-0.06612 -5.56809,1.724502 -8.25801,2.740463 -2.324768,0.878046 -5.164544,2.072883 -6.348313,2.671055 -3.237096,1.635736 -7.61474,4.979876 -11.712445,8.947286 l -1.315349,1.27353 0.430684,0.005 c 0.236876,0.003 0.891874,-0.0645 1.455551,-0.14915 z m -37.419469,-2.91668 c 2.12457,-2.93044 2.985567,-3.93749 3.965548,-4.63824 1.05666,-0.75558 3.743039,-2.428023 6.812714,-4.241349 l 2.462639,-1.454736 -0.06392,-0.399721 c -0.147109,-0.919964 -1.169255,-2.161397 -1.960575,-2.381185 -0.982843,-0.272984 -1.823711,-0.02507 -3.305509,0.974563 -1.552626,1.047416 -4.110956,3.074875 -4.930454,3.907351 -1.559937,1.584643 -3.05774,3.825917 -4.545244,6.801387 l -0.910485,1.82126 -0.01719,1.16357 c -0.0095,0.63997 0.02459,1.22888 0.07565,1.30869 0.131497,0.2055 0.567245,-0.31044 2.416825,-2.86159 z m 67.961653,-5.7827 c 0.139123,-0.0795 0.20742,-0.1446 0.151771,-0.1446 -0.05565,0 -0.215009,0.0651 -0.354133,0.1446 -0.139123,0.0795 -0.20742,0.1446 -0.151771,0.1446 0.05565,0 0.215009,-0.0651 0.354133,-0.1446 z m 1.983514,-1.273646 c 1.496764,-0.672683 3.44989,-1.574867 4.34028,-2.004855 l 1.618892,-0.781796 0.380509,-1.033157 c 0.488162,-1.325459 0.63051,-1.865238 0.548352,-2.07934 -0.03629,-0.09457 -0.237363,-0.244203 -0.44683,-0.332524 -0.333387,-0.14057 -0.841107,-0.153346 -4.073947,-0.102518 -3.650212,0.05739 -7.529006,0.237728 -7.756453,0.360623 -0.07747,0.04186 0.05031,0.31762 0.376234,0.811951 0.271447,0.411711 0.637785,1.094681 0.814086,1.517711 0.331783,0.796113 0.882835,2.853041 1.107339,4.133404 0.07523,0.429037 0.178758,0.733557 0.249387,0.733557 0.06642,0 1.345387,-0.550374 2.842151,-1.223056 z m -1.174069,0.919516 c 0.194773,-0.10663 0.308601,-0.193879 0.252952,-0.193879 -0.05565,0 -0.26054,0.08725 -0.455313,0.193879 -0.194773,0.10663 -0.308601,0.19388 -0.252952,0.19388 0.05565,0 0.26054,-0.0872 0.455313,-0.19388 z m 0.910627,-0.404722 c 0.194773,-0.106634 0.308601,-0.19388 0.252951,-0.19388 -0.05565,0 -0.26054,0.08725 -0.455313,0.19388 -0.194773,0.106633 -0.308601,0.193879 -0.252952,0.193879 0.05565,0 0.260541,-0.08725 0.455314,-0.193879 z m 0.910626,-0.404723 c 0.194773,-0.106633 0.308601,-0.193879 0.252952,-0.193879 -0.05565,0 -0.26054,0.08725 -0.455313,0.193879 -0.194773,0.106633 -0.308602,0.193879 -0.252952,0.193879 0.05565,0 0.26054,-0.08725 0.455313,-0.193879 z m 1.214169,-0.556494 c 0.250422,-0.134094 0.409782,-0.243808 0.354132,-0.243808 -0.05565,0 -0.306072,0.109714 -0.556494,0.243808 -0.250422,0.134094 -0.409782,0.243808 -0.354132,0.243808 0.05565,0 0.306071,-0.109714 0.556494,-0.243808 z m 1.214168,-0.556494 c 0.306072,-0.161697 0.510963,-0.293995 0.455313,-0.293995 -0.05565,0 -0.351603,0.132298 -0.657674,0.293995 -0.306072,0.161697 -0.510963,0.293995 -0.455313,0.293995 0.05565,0 0.351603,-0.132298 0.657674,-0.293995 z m 2.0253,-0.962061 c 0.611217,-0.306538 1.111302,-0.580106 1.111302,-0.607931 0,-0.04527 -2.21581,1.030989 -2.318725,1.126247 -0.14217,0.131594 0.230684,-0.02846 1.207423,-0.518316 z m 1.411745,-1.314505 c 0,-0.05565 -0.04414,-0.03288 -0.09808,0.05059 -0.05395,0.08347 -0.09808,0.197302 -0.09808,0.252951 0,0.05565 0.04414,0.03288 0.09808,-0.05059 0.05394,-0.08347 0.09808,-0.197302 0.09808,-0.252951 z m 0.202362,-0.505903 c 0,-0.05565 -0.04414,-0.03288 -0.09808,0.05059 -0.05394,0.08347 -0.09808,0.197302 -0.09808,0.252952 0,0.05565 0.04414,0.03288 0.09808,-0.05059 0.05395,-0.08347 0.09808,-0.197302 0.09808,-0.252952 z m -60.4118,-1.230725 c 1.313268,-0.757415 2.433291,-1.420219 2.488941,-1.472898 0.102514,-0.09704 -5.130642,-0.02831 -6.40247,0.08408 l -0.635169,0.05613 0.395917,0.269896 c 0.217755,0.148442 0.514666,0.412707 0.659802,0.587256 0.35529,0.42729 0.768907,1.33591 0.770124,1.691783 8.1e-4,0.226945 0.03689,0.275294 0.168042,0.224967 0.09188,-0.03526 1.241545,-0.683807 2.554813,-1.441222 z m 60.888739,-0.356548 c -0.0323,-0.08071 -0.05627,-0.05674 -0.06113,0.06113 -0.0044,0.10666 0.01952,0.166421 0.05314,0.132799 0.03362,-0.03362 0.03721,-0.12089 0.008,-0.19393 z M 97.9915,93.460373 c 0,-0.105133 -0.09471,-0.298641 -0.210469,-0.430018 l -0.210469,-0.238866 0.159879,0.25017 c 0.08793,0.137593 0.159878,0.331101 0.159878,0.430018 0,0.09892 0.02277,0.179848 0.05059,0.179848 0.02782,0 0.05059,-0.08602 0.05059,-0.191152 z m 92.67538,-0.730975 c -1.19114,-2.225659 -5.4435,-8.55384 -8.38912,-12.484317 -3.36248,-4.486726 -3.4432,-4.579991 -4.04148,-4.669383 -0.40074,-0.05987 -0.43971,-0.04817 -0.37771,0.113403 0.0776,0.202216 5.85021,8.765088 7.33454,10.879774 0.68484,0.975683 1.41088,1.830387 2.54118,2.991551 0.87031,0.894086 1.89674,2.020986 2.28094,2.504222 0.71587,0.900395 0.85217,1.03944 0.65165,0.66475 z M 68.042009,92.431195 c 8.652266,-0.200173 11.031391,-0.33024 15.784191,-0.862922 6.173309,-0.691889 15.844774,-2.149735 17.14099,-2.58378 1.37572,-0.460666 3.13627,-1.416319 5.09539,-2.765858 0.88053,-0.606551 2.5978,-2.060001 6.39776,-5.414891 4.46678,-3.943616 5.69292,-4.976641 9.18986,-7.742481 3.19395,-2.526203 3.43362,-2.737311 3.18358,-2.804181 -1.1277,-0.301593 -17.97211,-0.452326 -22.64328,-0.202625 -1.33559,0.07139 -4.158528,0.22009 -6.273204,0.330433 -5.286855,0.275866 -9.589879,0.572862 -11.635782,0.803104 -0.94604,0.106465 -2.129854,0.224313 -2.630699,0.261883 -1.061052,0.07959 -1.378774,0.179283 -4.352282,1.365593 -7.255642,2.894708 -10.961312,4.922281 -24.130089,13.202883 -1.752956,1.102269 -3.598234,2.257589 -4.100618,2.567378 -1.125313,0.69391 -4.499742,3.124298 -4.499742,3.24088 0,0.346035 1.736703,0.495657 7.639143,0.658132 4.931909,0.135759 8.117887,0.124985 15.834782,-0.05355 z m 15.63242,-21.446388 c 2.882864,-0.321059 6.595983,-0.568458 16.239505,-1.082012 4.250646,-0.226365 19.973696,-0.256467 23.338776,-0.04468 l 2.04024,0.128403 0.69502,-0.350007 c 2.56755,-1.292995 5.86592,-2.395477 8.52864,-2.850704 0.52805,-0.09028 0.9725,-0.176546 0.98766,-0.191709 0.17666,-0.176655 -18.84137,-0.227745 -21.73529,-0.05839 -9.74989,0.570575 -23.729447,2.277524 -28.172117,3.439904 -1.516503,0.396778 -4.036039,1.184855 -3.844867,1.202622 0.05565,0.0052 0.920744,-0.08187 1.922433,-0.193424 z"
       id="path21" />
  </g>
</svg>
